<svg width="64" height="64" viewBox="0 0 64 64" fill="none" xmlns="http://www.w3.org/2000/svg">
<mask id="mask0_2_58" style="mask-type:luminance" maskUnits="userSpaceOnUse" x="0" y="0" width="64" height="64">
<path d="M64 0H0V64H64V0Z" fill="white"/>
</mask>
<g mask="url(#mask0_2_58)">
<path fill-rule="evenodd" clip-rule="evenodd" d="M32 4C16.536 4 4 16.536 4 32C4 47.464 16.536 60 32 60C34.234 60 36.4069 59.7384 38.4898 59.244C43.2492 58.304 48.15 58.3136 52.9092 59.2748L54.4252 59.5808C55.3848 59.7748 56.2168 58.898 55.9732 57.95L53.8152 49.5544C57.684 44.7524 60 38.6466 60 32C60 16.536 47.464 4 32 4Z" fill="white"/>
<path d="M38.4897 59.244L38.0246 56.8896L37.9799 56.8984L37.9355 56.9088L38.4897 59.244ZM53.8152 49.5544L51.9464 48.0484L51.1912 48.986L51.4908 50.1516L53.8152 49.5544ZM6.39998 32C6.39998 17.8615 17.8615 6.39998 32 6.39998V1.59998C15.2105 1.59998 1.59998 15.2105 1.59998 32H6.39998ZM32 57.6C17.8615 57.6 6.39998 46.1384 6.39998 32H1.59998C1.59998 48.7896 15.2105 62.4 32 62.4V57.6ZM37.9355 56.9088C36.033 57.3604 34.046 57.6 32 57.6V62.4C34.422 62.4 36.7808 62.1164 39.0439 61.5792L37.9355 56.9088ZM53.3844 56.9224C48.3148 55.8984 43.0944 55.888 38.0246 56.8896L38.9549 61.5984C43.404 60.7196 47.9852 60.7288 52.434 61.6272L53.3844 56.9224ZM54.9004 57.2284L53.3844 56.9224L52.434 61.6272L53.95 61.9336L54.9004 57.2284ZM53.6484 58.5472C53.4516 57.7804 54.1244 57.0716 54.9004 57.2284L53.95 61.9336C56.6452 62.478 58.982 60.0156 58.2976 57.3524L53.6484 58.5472ZM51.4908 50.1516L53.6484 58.5472L58.2976 57.3524L56.1396 48.9568L51.4908 50.1516ZM57.6 32C57.6 38.0792 55.484 43.6576 51.9464 48.0484L55.684 51.06C59.884 45.8472 62.4 39.2141 62.4 32H57.6ZM32 6.39998C46.1384 6.39998 57.6 17.8615 57.6 32H62.4C62.4 15.2105 48.7896 1.59998 32 1.59998V6.39998Z" fill="black"/>
<path d="M22 24V32" stroke="black" stroke-width="5.28" stroke-linecap="round" stroke-linejoin="round"/>
<path d="M38 24V32" stroke="black" stroke-width="5.28" stroke-linecap="round" stroke-linejoin="round"/>
</g>
</svg>
