<svg width="64" height="64" viewBox="0 0 64 64" fill="none" xmlns="http://www.w3.org/2000/svg">
<path d="M3.3335 53.3332L60.8 44" stroke="black" stroke-width="4.96" stroke-linecap="round" stroke-linejoin="round"/>
<path d="M21.3335 60.6668L50 56" stroke="black" stroke-width="4.96" stroke-linecap="round" stroke-linejoin="round"/>
<path d="M3.19995 16L7.99996 12V42.6668" stroke="black" stroke-width="4.96" stroke-linecap="round" stroke-linejoin="round"/>
<path d="M34 23.3333C34 36.1698 29.9706 39.3333 25 39.3333C20.0294 39.3333 16 36.1698 16 23.3333C16 10.4967 20.0294 7.33325 25 7.33325C29.9706 7.33325 34 10.4967 34 23.3333Z" fill="white" stroke="black" stroke-width="4.96"/>
<path d="M60 18.6668C60 31.5033 55.9704 34.6668 51 34.6668C46.0296 34.6668 42 31.5033 42 18.6668C42 5.8302 46.0296 2.66675 51 2.66675C55.9704 2.66675 60 5.8302 60 18.6668Z" fill="white" stroke="black" stroke-width="4.96"/>
</svg>
