<svg width="500" height="500" viewBox="0 0 500 500" fill="none" xmlns="http://www.w3.org/2000/svg">
<g clip-path="url(#clip0_421_2)">
<path d="M550 -50H-50V550H550V-50Z" fill="white"/>
<path d="M550 -50H-50V550H550V-50Z" fill="#EBEBEB"/>
<path fill-rule="evenodd" clip-rule="evenodd" d="M-27.0105 247.188V225.578H16.2083V247.542H-27.0105V247.188ZM-26.3022 226.286V246.833H15.4947V226.286H-26.3022Z" fill="#A6A6A6"/>
<path fill-rule="evenodd" clip-rule="evenodd" d="M15.8542 161.818H37.4584V183.776H15.4949V161.818H15.8542ZM36.7501 162.521H16.2084V183.068H36.7501V162.521Z" fill="#A6A6A6"/>
<path fill-rule="evenodd" clip-rule="evenodd" d="M15.8542 204.323H37.4584V226.287H15.4949V204.323H15.8542ZM36.7501 205.031H16.2084V225.578H36.7501V205.031Z" fill="#A6A6A6"/>
<path fill-rule="evenodd" clip-rule="evenodd" d="M37.1042 225.578H58.7135V247.542H36.75V225.578H37.1042ZM58.0052 226.286H37.4583V246.833H58.0052V226.286Z" fill="#A6A6A6"/>
<path fill-rule="evenodd" clip-rule="evenodd" d="M58.3593 183.068H79.9687V226.286H58.0051V183.068H58.3593ZM79.2603 183.776H58.7135V225.578H79.2603V183.776Z" fill="#A6A6A6"/>
<path fill-rule="evenodd" clip-rule="evenodd" d="M58.0051 268.443V246.833H101.224V268.792H58.0051V268.443ZM58.7135 247.542V268.083H100.51V247.542H58.7135Z" fill="#A6A6A6"/>
<path fill-rule="evenodd" clip-rule="evenodd" d="M-5.75513 289.693V268.083H37.4584V290.047H-5.75513V289.693ZM-5.04679 268.792V289.338H36.7501V268.792H-5.04679Z" fill="#A6A6A6"/>
<path fill-rule="evenodd" clip-rule="evenodd" d="M37.1042 289.339H58.7135V311.302H36.75V289.339H37.1042ZM58.0052 290.047H37.4583V310.594H58.0052V290.047Z" fill="#A6A6A6"/>
<path fill-rule="evenodd" clip-rule="evenodd" d="M15.8542 310.594H37.4584V353.807H15.4949V310.594H15.8542ZM36.7501 311.302H16.2084V353.104H36.7501V311.302Z" fill="#A6A6A6"/>
<path fill-rule="evenodd" clip-rule="evenodd" d="M58.3593 331.849H79.9687V353.807H58.0051V331.849H58.3593ZM79.2603 332.557H58.7135V353.104H79.2603V332.557Z" fill="#A6A6A6"/>
<path fill-rule="evenodd" clip-rule="evenodd" d="M121.766 332.198V310.594H164.984V332.557H121.766V332.198ZM122.469 311.302V331.849H164.271V311.302H122.469Z" fill="#A6A6A6"/>
<path fill-rule="evenodd" clip-rule="evenodd" d="M143.375 225.578H164.984V268.792H143.021V225.578H143.375ZM164.271 226.286H143.724V268.083H164.271V226.286Z" fill="#A6A6A6"/>
<path fill-rule="evenodd" clip-rule="evenodd" d="M207.135 331.849H228.745V353.807H206.781V331.849H207.135ZM228.036 332.557H207.49V353.104H228.036V332.557Z" fill="#A6A6A6"/>
<path fill-rule="evenodd" clip-rule="evenodd" d="M164.625 268.083H186.234V290.047H164.271V268.083H164.625ZM185.526 268.792H164.984V289.338H185.526V268.792Z" fill="#A6A6A6"/>
<path fill-rule="evenodd" clip-rule="evenodd" d="M185.526 310.948V289.339H228.745V311.302H185.526V310.948ZM186.234 290.047V310.594H228.037V290.047H186.234Z" fill="#A6A6A6"/>
<path fill-rule="evenodd" clip-rule="evenodd" d="M164.625 331.849H186.234V353.807H164.271V331.849H164.625ZM185.526 332.557H164.984V353.104H185.526V332.557Z" fill="#A6A6A6"/>
<mask id="mask0_421_2" style="mask-type:luminance" maskUnits="userSpaceOnUse" x="228" y="352" width="22" height="45">
<path d="M228 352.88H249.995V396.312H228V352.88Z" fill="white"/>
</mask>
<g mask="url(#mask0_421_2)">
<path fill-rule="evenodd" clip-rule="evenodd" d="M228.391 353.104H250V396.312H228.036V353.104H228.391ZM249.286 353.807H228.745V395.609H249.286V353.807Z" fill="#A6A6A6"/>
</g>
<path fill-rule="evenodd" clip-rule="evenodd" d="M185.88 225.578H207.49V247.542H185.526V225.578H185.88ZM206.781 226.286H186.234V246.833H206.781V226.286Z" fill="#A6A6A6"/>
<path fill-rule="evenodd" clip-rule="evenodd" d="M207.135 246.833H228.745V268.792H206.781V246.833H207.135ZM228.036 247.542H207.49V268.083H228.036V247.542Z" fill="#A6A6A6"/>
<mask id="mask1_421_2" style="mask-type:luminance" maskUnits="userSpaceOnUse" x="228" y="204" width="23" height="23">
<path d="M228 204H250.484V226.667H228V204Z" fill="white"/>
</mask>
<g mask="url(#mask1_421_2)">
<path fill-rule="evenodd" clip-rule="evenodd" d="M228.391 204.323H250V226.287H228.036V204.323H228.391ZM249.286 205.031H228.745V225.578H249.286V205.031Z" fill="#A6A6A6"/>
</g>
<path fill-rule="evenodd" clip-rule="evenodd" d="M100.865 268.083H122.469V290.047H100.51V268.083H100.865ZM121.766 268.792H101.224V289.338H121.766V268.792Z" fill="#A6A6A6"/>
<path fill-rule="evenodd" clip-rule="evenodd" d="M79.6095 289.339H101.224V311.302H79.2605V289.339H79.6095ZM100.51 290.047H79.9688V310.594H100.51V290.047Z" fill="#A6A6A6"/>
<path fill-rule="evenodd" clip-rule="evenodd" d="M2.14054 296.88H8.66138V303.76H1.78638V296.88H2.14054ZM7.95304 297.588H2.49471V303.047H7.95304V297.588Z" fill="#A6A6A6"/>
<path fill-rule="evenodd" clip-rule="evenodd" d="M0.468831 188.943H10.3334V199.156H0.119873V188.943H0.468831ZM9.61987 189.651H0.822999V198.448H9.61987V189.651Z" fill="#A6A6A6"/>
<path fill-rule="evenodd" clip-rule="evenodd" d="M44.5624 148.016H51.2551V155.068H44.2083V148.016H44.5624ZM50.5468 148.729H44.9166V154.359H50.5468V148.729Z" fill="#A6A6A6"/>
<path fill-rule="evenodd" clip-rule="evenodd" d="M105.005 229.719H118.339V243.401H104.651V229.719H105.005ZM117.63 230.422H105.359V242.693H117.63V230.422Z" fill="#A6A6A6"/>
<path fill-rule="evenodd" clip-rule="evenodd" d="M87.276 211.984H93.5573V218.625H86.9219V211.984H87.276ZM92.849 212.693H87.6302V217.917H92.849V212.693Z" fill="#A6A6A6"/>
<path fill-rule="evenodd" clip-rule="evenodd" d="M150.76 296.724H157.594V303.911H150.406V296.724H150.76ZM156.885 297.432H151.115V303.203H156.885V297.432Z" fill="#A6A6A6"/>
<path fill-rule="evenodd" clip-rule="evenodd" d="M172.839 212.531H178.026V218.078H172.484V212.531H172.839ZM177.318 213.24H173.193V217.37H177.318V213.24Z" fill="#A6A6A6"/>
<path fill-rule="evenodd" clip-rule="evenodd" d="M212.854 188.786H223.021V199.312H212.5V188.786H212.854ZM222.318 189.5H213.208V198.604H222.318V189.5Z" fill="#A6A6A6"/>
<path fill-rule="evenodd" clip-rule="evenodd" d="M234.146 273.839H244.245V284.292H233.792V273.839H234.146ZM243.536 274.547H234.495V283.583H243.536V274.547Z" fill="#A6A6A6"/>
<path fill-rule="evenodd" clip-rule="evenodd" d="M236.172 233.359H242.214V239.755H235.818V233.359H236.172ZM241.505 234.068H236.531V239.047H241.505V234.068Z" fill="#A6A6A6"/>
<path fill-rule="evenodd" clip-rule="evenodd" d="M236.083 318.286H242.307V324.865H235.724V318.286H236.083ZM241.599 318.99H236.438V324.156H241.599V318.99Z" fill="#A6A6A6"/>
<path fill-rule="evenodd" clip-rule="evenodd" d="M194.146 255.094H199.224V260.526H193.797V255.094H194.146ZM198.516 255.802H194.5V259.818H198.516V255.802Z" fill="#A6A6A6"/>
<path fill-rule="evenodd" clip-rule="evenodd" d="M191.208 358.427H202.162V369.734H190.854V358.427H191.208ZM201.453 359.135H191.563V369.026H201.453V359.135Z" fill="#A6A6A6"/>
<mask id="mask2_421_2" style="mask-type:luminance" maskUnits="userSpaceOnUse" x="250" y="161" width="22" height="23">
<path d="M250 161.333H272V184H250V161.333Z" fill="white"/>
</mask>
<g mask="url(#mask2_421_2)">
<path fill-rule="evenodd" clip-rule="evenodd" d="M250.354 161.818H271.964V183.776H250V161.818H250.354ZM271.255 162.521H250.708V183.068H271.255V162.521Z" fill="#A6A6A6"/>
</g>
<path fill-rule="evenodd" clip-rule="evenodd" d="M292.51 247.188V225.578H335.724V247.542H292.51V247.188ZM293.219 226.286V246.833H335.016V226.286H293.219Z" fill="#A6A6A6"/>
<path fill-rule="evenodd" clip-rule="evenodd" d="M271.609 183.068H293.219V226.286H271.255V183.068H271.609ZM292.51 183.776H271.964V225.578H292.51V183.776Z" fill="#A6A6A6"/>
<path fill-rule="evenodd" clip-rule="evenodd" d="M271.609 119.307H293.219V141.271H271.255V119.307H271.609ZM292.51 120.016H271.964V140.563H292.51V120.016Z" fill="#A6A6A6"/>
<path fill-rule="evenodd" clip-rule="evenodd" d="M292.865 140.562H314.469V183.776H292.51V140.562H292.865ZM313.76 141.271H293.219V183.068H313.76V141.271Z" fill="#A6A6A6"/>
<path fill-rule="evenodd" clip-rule="evenodd" d="M335.37 161.818H356.979V183.776H335.016V161.818H335.37ZM356.271 162.521H335.724V183.068H356.271V162.521Z" fill="#A6A6A6"/>
<path fill-rule="evenodd" clip-rule="evenodd" d="M335.37 204.323H356.979V226.287H335.016V204.323H335.37ZM356.271 205.031H335.724V225.578H356.271V205.031Z" fill="#A6A6A6"/>
<path fill-rule="evenodd" clip-rule="evenodd" d="M356.625 225.578H378.229V247.542H356.271V225.578H356.625ZM377.526 226.286H356.979V246.833H377.526V226.286Z" fill="#A6A6A6"/>
<path fill-rule="evenodd" clip-rule="evenodd" d="M377.875 183.068H399.484V226.286H377.526V183.068H377.875ZM398.776 183.776H378.229V225.578H398.776V183.776Z" fill="#A6A6A6"/>
<path fill-rule="evenodd" clip-rule="evenodd" d="M377.526 268.443V246.833H420.74V268.792H377.526V268.443ZM378.229 247.542V268.083H420.031V247.542H378.229Z" fill="#A6A6A6"/>
<mask id="mask3_421_2" style="mask-type:luminance" maskUnits="userSpaceOnUse" x="250" y="246" width="22" height="24">
<path d="M250 246.667H272V269.333H250V246.667Z" fill="white"/>
</mask>
<g mask="url(#mask3_421_2)">
<path fill-rule="evenodd" clip-rule="evenodd" d="M250.354 246.833H271.964V268.792H250V246.833H250.354ZM271.255 247.542H250.708V268.083H271.255V247.542Z" fill="#A6A6A6"/>
</g>
<path fill-rule="evenodd" clip-rule="evenodd" d="M271.609 268.083H293.219V290.047H271.255V268.083H271.609ZM292.51 268.792H271.964V289.338H292.51V268.792Z" fill="#A6A6A6"/>
<path fill-rule="evenodd" clip-rule="evenodd" d="M292.865 289.339H314.469V332.557H292.51V289.339H292.865ZM313.76 290.047H293.219V331.849H313.76V290.047Z" fill="#A6A6A6"/>
<path fill-rule="evenodd" clip-rule="evenodd" d="M313.76 289.693V268.083H356.979V290.047H313.76V289.693ZM314.469 268.792V289.338H356.271V268.792H314.469Z" fill="#A6A6A6"/>
<path fill-rule="evenodd" clip-rule="evenodd" d="M356.625 289.339H378.229V311.302H356.271V289.339H356.625ZM377.526 290.047H356.979V310.594H377.526V290.047Z" fill="#A6A6A6"/>
<path fill-rule="evenodd" clip-rule="evenodd" d="M335.37 310.594H356.979V353.807H335.016V310.594H335.37ZM356.271 311.302H335.724V353.104H356.271V311.302Z" fill="#A6A6A6"/>
<path fill-rule="evenodd" clip-rule="evenodd" d="M377.875 331.849H399.484V353.807H377.526V331.849H377.875ZM398.776 332.557H378.229V353.104H398.776V332.557Z" fill="#A6A6A6"/>
<path fill-rule="evenodd" clip-rule="evenodd" d="M271.609 331.849H293.219V353.807H271.255V331.849H271.609ZM292.51 332.557H271.964V353.104H292.51V332.557Z" fill="#A6A6A6"/>
<path fill-rule="evenodd" clip-rule="evenodd" d="M292.865 353.104H314.469V375.063H292.51V353.104H292.865ZM313.76 353.807H293.219V374.354H313.76V353.807Z" fill="#A6A6A6"/>
<mask id="mask4_421_2" style="mask-type:luminance" maskUnits="userSpaceOnUse" x="250" y="373" width="22" height="24">
<path d="M250 373.969H272V396.312H250V373.969Z" fill="white"/>
</mask>
<g mask="url(#mask4_421_2)">
<path fill-rule="evenodd" clip-rule="evenodd" d="M250.354 374.354H271.964V396.313H250V374.354H250.354ZM271.255 375.063H250.708V395.609H271.255V375.063Z" fill="#A6A6A6"/>
</g>
<path fill-rule="evenodd" clip-rule="evenodd" d="M441.286 332.198V310.594H484.5V332.557H441.286V332.198ZM441.99 311.302V331.849H483.792V311.302H441.99Z" fill="#A6A6A6"/>
<path fill-rule="evenodd" clip-rule="evenodd" d="M462.891 225.578H484.5V268.792H462.536V225.578H462.891ZM483.792 226.286H463.245V268.083H483.792V226.286Z" fill="#A6A6A6"/>
<path fill-rule="evenodd" clip-rule="evenodd" d="M484.146 268.083H505.755V290.047H483.792V268.083H484.146ZM505.042 268.792H484.5V289.338H505.042V268.792Z" fill="#A6A6A6"/>
<path fill-rule="evenodd" clip-rule="evenodd" d="M484.146 331.849H505.755V353.807H483.792V331.849H484.146ZM505.042 332.557H484.5V353.104H505.042V332.557Z" fill="#A6A6A6"/>
<path fill-rule="evenodd" clip-rule="evenodd" d="M420.385 268.083H441.99V290.047H420.031V268.083H420.385ZM441.286 268.792H420.74V289.338H441.286V268.792Z" fill="#A6A6A6"/>
<path fill-rule="evenodd" clip-rule="evenodd" d="M399.13 289.339H420.74V311.302H398.776V289.339H399.13ZM420.031 290.047H399.484V310.594H420.031V290.047Z" fill="#A6A6A6"/>
<path fill-rule="evenodd" clip-rule="evenodd" d="M255.245 294.229H267.068V306.406H254.891V294.229H255.245ZM266.365 294.938H255.599V305.703H266.365V294.938Z" fill="#A6A6A6"/>
<path fill-rule="evenodd" clip-rule="evenodd" d="M278.891 360.385H285.938V367.781H278.536V360.385H278.891ZM285.229 361.089H279.245V367.073H285.229V361.089Z" fill="#A6A6A6"/>
<path fill-rule="evenodd" clip-rule="evenodd" d="M299.333 253.302H308V262.323H298.979V253.302H299.333ZM307.292 254.01H299.687V261.615H307.292V254.01Z" fill="#A6A6A6"/>
<path fill-rule="evenodd" clip-rule="evenodd" d="M321.661 296.88H328.182V303.76H321.302V296.88H321.661ZM327.474 297.588H322.016V303.047H327.474V297.588Z" fill="#A6A6A6"/>
<path fill-rule="evenodd" clip-rule="evenodd" d="M257.167 189.88H265.151V198.219H256.812V189.88H257.167ZM264.443 190.588H257.521V197.51H264.443V190.588Z" fill="#A6A6A6"/>
<path fill-rule="evenodd" clip-rule="evenodd" d="M319.99 188.943H329.849V199.156H319.635V188.943H319.99ZM329.141 189.651H320.344V198.448H329.141V189.651Z" fill="#A6A6A6"/>
<mask id="mask5_421_2" style="mask-type:luminance" maskUnits="userSpaceOnUse" x="254" y="103" width="13" height="12">
<path d="M254.667 103.62H266.667V114.667H254.667V103.62Z" fill="white"/>
</mask>
<g mask="url(#mask5_421_2)">
<path fill-rule="evenodd" clip-rule="evenodd" d="M255.958 103.656H266.365V114.417H255.599V103.656H255.958ZM265.651 104.365H256.312V113.708H265.651V104.365Z" fill="#A6A6A6"/>
</g>
<path fill-rule="evenodd" clip-rule="evenodd" d="M364.078 148.016H370.776V155.068H363.724V148.016H364.078ZM370.068 148.729H364.432V154.359H370.068V148.729Z" fill="#A6A6A6"/>
<path fill-rule="evenodd" clip-rule="evenodd" d="M424.521 229.719H437.854V243.401H424.172V229.719H424.521ZM437.146 230.422H424.875V242.693H437.146V230.422Z" fill="#A6A6A6"/>
<path fill-rule="evenodd" clip-rule="evenodd" d="M406.792 211.984H413.078V218.625H406.438V211.984H406.792ZM412.37 212.693H407.146V217.917H412.37V212.693Z" fill="#A6A6A6"/>
<path fill-rule="evenodd" clip-rule="evenodd" d="M470.276 296.724H477.115V303.911H469.927V296.724H470.276ZM476.406 297.432H470.635V303.203H476.406V297.432Z" fill="#A6A6A6"/>
<path fill-rule="evenodd" clip-rule="evenodd" d="M492.354 212.531H497.547V218.078H492V212.531H492.354ZM496.839 213.24H492.708V217.37H496.839V213.24Z" fill="#A6A6A6"/>
<mask id="mask6_421_2" style="mask-type:luminance" maskUnits="userSpaceOnUse" x="90" y="118" width="320" height="279">
<path d="M90.2395 118.927H409.958V396.38H90.2395V118.927Z" fill="white"/>
</mask>
<g mask="url(#mask6_421_2)">
<mask id="mask7_421_2" style="mask-type:luminance" maskUnits="userSpaceOnUse" x="90" y="118" width="320" height="279">
<path d="M110.24 118.927H389.76C395.062 118.927 400.151 121.036 403.901 124.786C407.651 128.536 409.76 133.625 409.76 138.927V376.38C409.76 381.682 407.651 386.771 403.901 390.521C400.151 394.271 395.062 396.38 389.76 396.38H110.24C104.937 396.38 99.8489 394.271 96.0989 390.521C92.3489 386.771 90.2395 381.682 90.2395 376.38V138.927C90.2395 133.625 92.3489 128.536 96.0989 124.786C99.8489 121.036 104.937 118.927 110.24 118.927Z" fill="white"/>
</mask>
<g mask="url(#mask7_421_2)">
<path d="M90.2395 118.927H409.958V396.38H90.2395V118.927Z" fill="white"/>
</g>
</g>
<mask id="mask8_421_2" style="mask-type:luminance" maskUnits="userSpaceOnUse" x="106" y="188" width="288" height="53">
<path d="M106.234 188.229H393.818V240.745H106.234V188.229Z" fill="white"/>
</mask>
<g mask="url(#mask8_421_2)">
<mask id="mask9_421_2" style="mask-type:luminance" maskUnits="userSpaceOnUse" x="106" y="188" width="288" height="53">
<path d="M116.234 188.229H383.766C389.292 188.229 393.766 192.708 393.766 198.229V230.745C393.766 236.266 389.292 240.745 383.766 240.745H116.234C110.708 240.745 106.234 236.266 106.234 230.745V198.229C106.234 192.708 110.708 188.229 116.234 188.229Z" fill="white"/>
</mask>
<g mask="url(#mask9_421_2)">
<path d="M106.234 188.229H393.818V240.745H106.234V188.229Z" fill="white"/>
</g>
</g>
<mask id="mask10_421_2" style="mask-type:luminance" maskUnits="userSpaceOnUse" x="106" y="188" width="289" height="54">
<path d="M106.266 188.229H394.234V241.229H106.266V188.229Z" fill="white"/>
</mask>
<g mask="url(#mask10_421_2)">
<mask id="mask11_421_2" style="mask-type:luminance" maskUnits="userSpaceOnUse" x="106" y="188" width="288" height="53">
<path d="M116.26 188.229H383.734C389.255 188.229 393.729 192.708 393.729 198.229V230.734C393.729 236.255 389.255 240.729 383.734 240.729H116.26C110.74 240.729 106.266 236.255 106.266 230.734V198.229C106.266 192.708 110.74 188.229 116.26 188.229Z" fill="white"/>
</mask>
<g mask="url(#mask11_421_2)">
<path d="M116.26 188.229H383.734C389.255 188.229 393.729 192.708 393.729 198.229V230.734C393.729 236.255 389.255 240.729 383.734 240.729H116.26C110.74 240.729 106.266 236.255 106.266 230.734V198.229C106.266 192.708 110.74 188.229 116.26 188.229Z" stroke="#D8D6D6" stroke-width="2"/>
</g>
</g>
<mask id="mask12_421_2" style="mask-type:luminance" maskUnits="userSpaceOnUse" x="106" y="250" width="288" height="53">
<path d="M106.234 250H393.818V302.51H106.234V250Z" fill="white"/>
</mask>
<g mask="url(#mask12_421_2)">
<mask id="mask13_421_2" style="mask-type:luminance" maskUnits="userSpaceOnUse" x="106" y="250" width="288" height="53">
<path d="M116.234 250H383.766C389.292 250 393.766 254.479 393.766 260V292.51C393.766 298.036 389.292 302.51 383.766 302.51H116.234C110.708 302.51 106.234 298.036 106.234 292.51V260C106.234 254.479 110.708 250 116.234 250Z" fill="white"/>
</mask>
<g mask="url(#mask13_421_2)">
<path d="M106.234 250H393.818V302.51H106.234V250Z" fill="white"/>
</g>
</g>
<mask id="mask14_421_2" style="mask-type:luminance" maskUnits="userSpaceOnUse" x="106" y="250" width="289" height="53">
<path d="M106.266 250H394.234V302.667H106.266V250Z" fill="white"/>
</mask>
<g mask="url(#mask14_421_2)">
<mask id="mask15_421_2" style="mask-type:luminance" maskUnits="userSpaceOnUse" x="106" y="250" width="288" height="53">
<path d="M116.26 250H383.734C389.255 250 393.729 254.474 393.729 260V292.5C393.729 298.026 389.255 302.5 383.734 302.5H116.26C110.74 302.5 106.266 298.026 106.266 292.5V260C106.266 254.474 110.74 250 116.26 250Z" fill="white"/>
</mask>
<g mask="url(#mask15_421_2)">
<path d="M116.26 250H383.734C389.255 250 393.729 254.474 393.729 260V292.5C393.729 298.026 389.255 302.5 383.734 302.5H116.26C110.74 302.5 106.266 298.026 106.266 292.5V260C106.266 254.474 110.74 250 116.26 250Z" stroke="#D8D6D6" stroke-width="2"/>
</g>
</g>
<mask id="mask16_421_2" style="mask-type:luminance" maskUnits="userSpaceOnUse" x="106" y="311" width="288" height="54">
<path d="M106.234 311.51H393.818V364.026H106.234V311.51Z" fill="white"/>
</mask>
<g mask="url(#mask16_421_2)">
<mask id="mask17_421_2" style="mask-type:luminance" maskUnits="userSpaceOnUse" x="106" y="311" width="288" height="54">
<path d="M116.234 311.51H383.766C389.292 311.51 393.766 315.99 393.766 321.51V354.026C393.766 359.547 389.292 364.026 383.766 364.026H116.234C110.708 364.026 106.234 359.547 106.234 354.026V321.51C106.234 315.99 110.708 311.51 116.234 311.51Z" fill="white"/>
</mask>
<g mask="url(#mask17_421_2)">
<path d="M106.234 311.51H393.818V364.026H106.234V311.51Z" fill="white"/>
</g>
</g>
<mask id="mask18_421_2" style="mask-type:luminance" maskUnits="userSpaceOnUse" x="106" y="311" width="289" height="54">
<path d="M106.266 311.51H394.234V364.51H106.266V311.51Z" fill="white"/>
</mask>
<g mask="url(#mask18_421_2)">
<mask id="mask19_421_2" style="mask-type:luminance" maskUnits="userSpaceOnUse" x="106" y="311" width="288" height="54">
<path d="M116.26 311.51H383.734C389.255 311.51 393.729 315.99 393.729 321.51V354.016C393.729 359.537 389.255 364.01 383.734 364.01H116.26C110.74 364.01 106.266 359.537 106.266 354.016V321.51C106.266 315.99 110.74 311.51 116.26 311.51Z" fill="white"/>
</mask>
<g mask="url(#mask19_421_2)">
<path d="M116.26 311.51H383.734C389.255 311.51 393.729 315.99 393.729 321.51V354.016C393.729 359.537 389.255 364.01 383.734 364.01H116.26C110.74 364.01 106.266 359.537 106.266 354.016V321.51C106.266 315.99 110.74 311.51 116.26 311.51Z" stroke="#D8D6D6" stroke-width="2"/>
</g>
</g>
<mask id="mask20_421_2" style="mask-type:luminance" maskUnits="userSpaceOnUse" x="352" y="201" width="27" height="27">
<path d="M352.141 201.526H378.141V227.526H352.141V201.526Z" fill="white"/>
</mask>
<g mask="url(#mask20_421_2)">
<path d="M365.141 227.526C357.964 227.526 352.141 221.708 352.141 214.526C352.141 207.349 357.964 201.526 365.141 201.526C372.323 201.526 378.141 207.349 378.141 214.526C378.141 221.708 372.323 227.526 365.141 227.526Z" fill="#21B524"/>
</g>
<path d="M363.922 222.286L356.25 216.312L358.219 213.786L363.302 217.75L371.464 206.766L374.031 208.677L363.922 222.286Z" fill="white"/>
<mask id="mask21_421_2" style="mask-type:luminance" maskUnits="userSpaceOnUse" x="352" y="263" width="27" height="27">
<path d="M352.141 263.297H378.141V289.297H352.141V263.297Z" fill="white"/>
</mask>
<g mask="url(#mask21_421_2)">
<path d="M365.141 289.297C357.964 289.297 352.141 283.474 352.141 276.297C352.141 269.12 357.964 263.297 365.141 263.297C372.323 263.297 378.141 269.12 378.141 276.297C378.141 283.474 372.323 289.297 365.141 289.297Z" fill="#21B524"/>
</g>
<path d="M363.922 284.057L356.25 278.083L358.219 275.557L363.302 279.516L371.464 268.536L374.031 270.448L363.922 284.057Z" fill="white"/>
<mask id="mask22_421_2" style="mask-type:luminance" maskUnits="userSpaceOnUse" x="352" y="324" width="27" height="27">
<path d="M352.141 324.812H378.141V350.812H352.141V324.812Z" fill="white"/>
</mask>
<g mask="url(#mask22_421_2)">
<path d="M365.141 350.807C357.964 350.807 352.141 344.99 352.141 337.807C352.141 330.63 357.964 324.812 365.141 324.812C372.323 324.812 378.141 330.63 378.141 337.807C378.141 344.99 372.323 350.807 365.141 350.807Z" fill="#21B524"/>
</g>
<path d="M363.922 345.573L356.25 339.594L358.219 337.068L363.302 341.031L371.464 330.047L374.031 331.958L363.922 345.573Z" fill="white"/>
<mask id="mask23_421_2" style="mask-type:luminance" maskUnits="userSpaceOnUse" x="127" y="204" width="16" height="22">
<path d="M127.042 204.219H142.042V225.219H127.042V204.219Z" fill="white"/>
</mask>
<g mask="url(#mask23_421_2)">
<path d="M127.104 206.88C127.042 205.573 128.104 204.234 129.464 204.245C133.318 204.24 137.172 204.245 141.026 204.24C141.208 204.25 141.599 204.219 141.542 204.526C141.568 209.651 141.557 214.776 141.547 219.896C141.583 220.516 140.943 220.698 140.448 220.698C140.344 221.151 140.313 221.615 140.448 222.062C140.729 222.125 141.078 222.078 141.307 222.297C141.62 222.578 141.583 223.052 141.51 223.432C141.255 223.552 140.964 223.51 140.688 223.521C138.573 223.505 136.458 223.531 134.344 223.51C134.078 223.526 133.927 223.365 134.031 223.099C134.5 222.932 135.01 223.036 135.495 223.01C137.38 222.99 139.266 223.057 141.151 222.974C141.036 222.708 140.818 222.542 140.521 222.604C138.568 222.609 136.615 222.599 134.667 222.609C134.396 222.599 133.958 222.656 133.979 222.266C134.151 222.062 134.427 222.104 134.656 222.094C136.417 222.099 138.172 222.099 139.932 222.099C139.906 221.969 139.859 221.713 139.833 221.583C137.719 221.583 135.599 221.583 133.484 221.583C133.458 222.635 133.526 223.698 133.453 224.75L133.318 224.885C132.802 224.766 132.349 224.484 131.87 224.276C131.385 224.5 130.906 224.724 130.422 224.937C130.167 224.505 130.276 223.995 130.255 223.521C129.599 223.505 128.891 223.594 128.286 223.271C127.547 222.896 127.073 222.073 127.109 221.24C127.104 216.453 127.104 211.667 127.104 206.88ZM128.74 221.833C129.125 222.255 129.76 222.052 130.255 222.104C130.26 221.974 130.26 221.724 130.26 221.599C129.938 221.552 129.547 221.667 129.281 221.422C129.292 221.12 129.557 221.057 129.807 221.078C132.875 221.083 135.943 221.078 139.01 221.083C139.396 221.052 139.958 221.24 139.995 220.677C136.432 220.661 132.87 220.656 129.313 220.677C128.734 220.635 128.349 221.401 128.74 221.833ZM130.76 221.583C130.76 222.463 130.766 223.349 130.76 224.234C131.12 224.073 131.469 223.88 131.844 223.755C132.245 223.849 132.604 224.073 132.979 224.234C132.974 223.349 132.979 222.469 132.979 221.583C132.24 221.583 131.5 221.583 130.76 221.583Z" fill="#D56CA5"/>
</g>
<mask id="mask24_421_2" style="mask-type:luminance" maskUnits="userSpaceOnUse" x="130" y="272" width="14" height="20">
<path d="M130.667 272H144V291.297H130.667V272Z" fill="white"/>
</mask>
<g mask="url(#mask24_421_2)">
<path d="M143.146 287.963L139.901 287.51C139.672 287.479 139.453 287.578 139.302 287.776L137.177 290.604C136.797 291.115 136.089 290.88 135.849 290.172L131.557 277.568C131.375 277.031 131.552 276.448 131.953 276.271L138.521 273.364C138.922 273.187 139.396 273.484 139.578 274.021L143.87 286.62C144.109 287.333 143.724 288.047 143.146 287.963Z" fill="#FFB42E"/>
</g>
<mask id="mask25_421_2" style="mask-type:luminance" maskUnits="userSpaceOnUse" x="124" y="273" width="14" height="19">
<path d="M124.109 273.333H137.333V291.297H124.109V273.333Z" fill="white"/>
</mask>
<g mask="url(#mask25_421_2)">
<path d="M125.073 288.135L128.318 287.682C128.547 287.646 128.766 287.745 128.917 287.948L131.042 290.776C131.422 291.281 132.13 291.047 132.37 290.339L136.661 277.74C136.844 277.198 136.667 276.62 136.266 276.437L129.698 273.531C129.297 273.354 128.823 273.651 128.641 274.187L124.349 286.792C124.109 287.5 124.495 288.214 125.073 288.135Z" fill="#FFA22E"/>
</g>
<mask id="mask26_421_2" style="mask-type:luminance" maskUnits="userSpaceOnUse" x="124" y="263" width="20" height="20">
<path d="M124.109 263.297H144V282.667H124.109V263.297Z" fill="white"/>
</mask>
<g mask="url(#mask26_421_2)">
<path d="M143.562 272.891C143.562 278.182 139.328 282.469 134.109 282.469C128.885 282.469 124.656 278.182 124.656 272.891C124.656 267.604 128.885 263.312 134.109 263.312C139.328 263.312 143.562 267.604 143.562 272.891Z" fill="#FFCA2E"/>
</g>
<path d="M134.109 280.396C133.109 280.396 132.141 280.198 131.229 279.807C130.344 279.427 129.552 278.885 128.87 278.198C128.193 277.505 127.656 276.703 127.281 275.813C126.896 274.885 126.703 273.906 126.703 272.891C126.703 271.875 126.896 270.896 127.281 269.969C127.656 269.078 128.193 268.276 128.87 267.583C129.552 266.896 130.344 266.354 131.229 265.974C132.141 265.583 133.109 265.385 134.109 265.385C135.109 265.385 136.078 265.583 136.99 265.974C137.875 266.354 138.667 266.896 139.349 267.583C140.026 268.276 140.562 269.078 140.938 269.969C141.323 270.896 141.516 271.875 141.516 272.891C141.516 273.906 141.323 274.885 140.938 275.813C140.562 276.703 140.026 277.505 139.349 278.198C138.667 278.885 137.875 279.427 136.99 279.807C136.078 280.198 135.109 280.396 134.109 280.396Z" fill="#FFF7B8"/>
<path d="M134.703 267.885L135.745 270.026C135.844 270.224 136.031 270.359 136.245 270.391L138.578 270.734C139.12 270.813 139.338 271.49 138.943 271.88L137.26 273.547C137.104 273.703 137.031 273.922 137.068 274.141L137.463 276.495C137.557 277.042 136.99 277.464 136.505 277.203L134.417 276.094C134.224 275.99 133.995 275.99 133.802 276.094L131.713 277.203C131.229 277.464 130.661 277.042 130.755 276.495L131.151 274.141C131.187 273.922 131.115 273.703 130.958 273.547L129.271 271.88C128.88 271.49 129.099 270.813 129.641 270.734L131.974 270.391C132.187 270.359 132.375 270.224 132.474 270.026L133.516 267.885C133.76 267.385 134.458 267.385 134.703 267.885Z" fill="#FFB42E"/>
<mask id="mask27_421_2" style="mask-type:luminance" maskUnits="userSpaceOnUse" x="123" y="329" width="23" height="17">
<path d="M123.104 329.458H145.104V345.333H123.104V329.458Z" fill="white"/>
</mask>
<g mask="url(#mask27_421_2)">
<path d="M134.333 329.495L123.104 335.401L134.333 341.312L140.833 338.026C140.833 338.026 140.833 341.005 140.833 342.495C140.833 344.854 143.198 344.854 143.198 344.854V343.677C143.198 343.677 142.016 343.609 142.016 342.495C142.016 340.719 142.016 337.359 142.016 337.359L145.557 335.401L134.333 329.495Z" fill="#8C52FF"/>
</g>
<mask id="mask28_421_2" style="mask-type:luminance" maskUnits="userSpaceOnUse" x="128" y="340" width="12" height="7">
<path d="M128 340H140V346.458H128V340Z" fill="white"/>
</mask>
<g mask="url(#mask28_421_2)">
<path d="M129.016 340.13V342.495C129.016 343.078 129.401 343.865 130.198 344.266L134.333 346.036L137.88 344.266C138.677 343.865 139.708 343.078 139.651 342.495V340.13L134.333 342.713L129.016 340.13Z" fill="#8C52FF"/>
</g>
<path d="M118.526 148.135C119.609 148.135 120.536 148.338 121.318 148.739C122.094 149.13 122.677 149.687 123.068 150.406C123.469 151.13 123.672 151.963 123.672 152.906C123.672 153.864 123.469 154.708 123.068 155.426C122.677 156.135 122.094 156.692 121.318 157.093C120.536 157.484 119.609 157.676 118.526 157.676H115.651V163.364H112.63V148.135H118.526ZM118.13 155.301C119.797 155.301 120.63 154.505 120.63 152.906C120.63 151.312 119.797 150.51 118.13 150.51H115.651V155.301H118.13Z" fill="black"/>
<path d="M126.231 163.364V151.864H129.023V153.572L129.252 153.614C129.528 152.979 129.887 152.51 130.335 152.218C130.793 151.916 131.34 151.76 131.981 151.76C132.632 151.76 133.132 151.874 133.481 152.093L132.981 154.593L132.773 154.635C132.575 154.551 132.387 154.499 132.21 154.468C132.043 154.426 131.835 154.406 131.585 154.406C130.778 154.406 130.158 154.692 129.731 155.26C129.314 155.833 129.106 156.739 129.106 157.989V163.364H126.231Z" fill="black"/>
<path d="M140.26 163.593C139.135 163.593 138.14 163.364 137.281 162.906C136.432 162.437 135.771 161.755 135.302 160.864C134.843 159.963 134.614 158.88 134.614 157.614C134.614 156.354 134.843 155.276 135.302 154.385C135.771 153.484 136.432 152.802 137.281 152.343C138.14 151.885 139.135 151.656 140.26 151.656C141.385 151.656 142.369 151.885 143.218 152.343C144.062 152.802 144.724 153.484 145.198 154.385C145.666 155.276 145.906 156.354 145.906 157.614C145.906 158.88 145.666 159.963 145.198 160.864C144.724 161.755 144.062 162.437 143.218 162.906C142.369 163.364 141.385 163.593 140.26 163.593ZM140.26 161.135C142.036 161.135 142.927 159.963 142.927 157.614C142.927 156.406 142.698 155.52 142.239 154.947C141.781 154.38 141.119 154.093 140.26 154.093C138.468 154.093 137.573 155.27 137.573 157.614C137.573 159.963 138.468 161.135 140.26 161.135Z" fill="black"/>
<path d="M148.944 163.364V154.156H147.319V151.864H148.944C148.819 151.38 148.757 150.921 148.757 150.489C148.757 149.77 148.924 149.151 149.257 148.635C149.59 148.109 150.069 147.713 150.694 147.447C151.319 147.171 152.059 147.031 152.924 147.031C154.2 147.031 155.153 147.255 155.778 147.697L155.09 149.822L154.882 149.864C154.45 149.562 153.892 149.406 153.215 149.406C152.7 149.406 152.309 149.531 152.049 149.781C151.783 150.031 151.653 150.38 151.653 150.822C151.653 151.005 151.663 151.177 151.694 151.343C151.72 151.5 151.762 151.671 151.819 151.864H155.111V154.156H151.819V163.364H148.944Z" fill="black"/>
<path d="M158.317 150.489C157.786 150.489 157.359 150.338 157.026 150.031C156.703 149.713 156.546 149.302 156.546 148.802C156.546 148.302 156.703 147.9 157.026 147.593C157.359 147.275 157.786 147.114 158.317 147.114C158.661 147.114 158.968 147.192 159.234 147.343C159.51 147.484 159.718 147.677 159.859 147.927C160.01 148.177 160.088 148.468 160.088 148.802C160.088 149.124 160.01 149.416 159.859 149.677C159.718 149.927 159.51 150.13 159.234 150.281C158.968 150.421 158.661 150.489 158.317 150.489ZM156.88 163.364V151.864H159.755V163.364H156.88Z" fill="black"/>
<path d="M166.17 163.593C165.139 163.593 164.347 163.317 163.795 162.76C163.253 162.192 162.982 161.338 162.982 160.197V147.26H165.878V160.072C165.878 160.781 166.17 161.135 166.753 161.135C166.92 161.135 167.092 161.109 167.274 161.051L167.42 161.093L167.691 163.301C167.524 163.395 167.305 163.468 167.045 163.51C166.779 163.562 166.488 163.593 166.17 163.593Z" fill="black"/>
<path d="M179.356 158.26H171.981C172.064 159.26 172.345 159.989 172.835 160.447C173.319 160.906 173.981 161.135 174.814 161.135C175.481 161.135 176.012 161.01 176.418 160.76C176.835 160.51 177.168 160.135 177.418 159.635H177.627L179.543 160.864C179.168 161.671 178.595 162.333 177.835 162.843C177.085 163.343 176.074 163.593 174.814 163.593C173.632 163.593 172.606 163.364 171.731 162.906C170.866 162.447 170.199 161.776 169.731 160.885C169.272 160 169.043 158.906 169.043 157.614C169.043 156.312 169.283 155.213 169.772 154.322C170.272 153.421 170.939 152.755 171.772 152.322C172.616 151.88 173.564 151.656 174.606 151.656C176.231 151.656 177.47 152.088 178.335 152.947C179.21 153.812 179.647 155.072 179.647 156.739C179.647 157.338 179.627 157.802 179.585 158.135L179.356 158.26ZM176.877 156.406C176.845 155.531 176.647 154.895 176.272 154.489C175.897 154.088 175.34 153.885 174.606 153.885C173.147 153.885 172.293 154.729 172.043 156.406H176.877Z" fill="black"/>
<path d="M164.34 220.674C163.2 220.674 162.195 220.44 161.32 219.966C160.445 219.482 159.762 218.768 159.278 217.82C158.788 216.862 158.549 215.69 158.549 214.299C158.549 212.914 158.788 211.747 159.278 210.799C159.762 209.841 160.445 209.128 161.32 208.654C162.195 208.185 163.2 207.945 164.34 207.945C165.518 207.945 166.528 208.185 167.361 208.654C168.195 209.112 168.788 209.815 169.153 210.758L167.361 211.862L167.153 211.841C166.887 211.206 166.528 210.747 166.07 210.466C165.611 210.19 165.033 210.049 164.34 210.049C163.309 210.049 162.507 210.393 161.924 211.07C161.351 211.753 161.07 212.831 161.07 214.299C161.07 215.773 161.351 216.852 161.924 217.529C162.507 218.211 163.309 218.549 164.34 218.549C165.934 218.549 166.913 217.768 167.278 216.195H167.507L169.299 217.154C168.965 218.32 168.387 219.206 167.57 219.799C166.747 220.383 165.674 220.674 164.34 220.674Z" fill="black"/>
<path d="M173.974 220.674C172.932 220.674 172.161 220.393 171.661 219.82C171.161 219.237 170.911 218.414 170.911 217.341V211.154H173.244V217.049C173.244 217.622 173.369 218.039 173.619 218.299C173.869 218.549 174.25 218.674 174.765 218.674C175.401 218.674 175.901 218.466 176.265 218.049C176.625 217.622 176.807 216.945 176.807 216.029V211.154H179.161V220.487H176.911V219.112L176.724 219.07C176.432 219.612 176.067 220.018 175.64 220.279C175.208 220.539 174.651 220.674 173.974 220.674Z" fill="black"/>
<path d="M181.853 220.487V211.154H184.124V212.549L184.291 212.57C184.525 212.06 184.822 211.685 185.186 211.445C185.546 211.195 185.988 211.07 186.52 211.07C187.046 211.07 187.447 211.164 187.728 211.341L187.332 213.362L187.166 213.404C187.009 213.336 186.858 213.289 186.707 213.258C186.567 213.232 186.4 213.216 186.207 213.216C185.551 213.216 185.051 213.445 184.707 213.904C184.358 214.362 184.186 215.102 184.186 216.112V220.487H181.853Z" fill="black"/>
<path d="M189.172 220.487V211.154H191.443V212.549L191.609 212.57C191.844 212.06 192.141 211.685 192.505 211.445C192.865 211.195 193.307 211.07 193.839 211.07C194.365 211.07 194.766 211.164 195.047 211.341L194.651 213.362L194.484 213.404C194.328 213.336 194.177 213.289 194.026 213.258C193.885 213.232 193.719 213.216 193.526 213.216C192.87 213.216 192.37 213.445 192.026 213.904C191.677 214.362 191.505 215.102 191.505 216.112V220.487H189.172Z" fill="black"/>
<path d="M197.657 210.029C197.225 210.029 196.876 209.904 196.616 209.654C196.35 209.393 196.22 209.06 196.22 208.654C196.22 208.253 196.35 207.924 196.616 207.674C196.876 207.414 197.225 207.279 197.657 207.279C197.934 207.279 198.184 207.341 198.407 207.466C198.626 207.581 198.793 207.737 198.907 207.945C199.032 208.154 199.095 208.393 199.095 208.654C199.095 208.919 199.032 209.154 198.907 209.362C198.793 209.57 198.626 209.737 198.407 209.862C198.184 209.976 197.934 210.029 197.657 210.029ZM196.491 220.487V211.154H198.824V220.487H196.491Z" fill="black"/>
<path d="M205.6 220.674C204.694 220.674 203.897 220.487 203.204 220.112C202.506 219.726 201.964 219.169 201.579 218.445C201.188 217.726 200.996 216.851 200.996 215.82C200.996 214.794 201.188 213.919 201.579 213.195C201.964 212.461 202.501 211.904 203.183 211.529C203.876 211.154 204.667 210.966 205.558 210.966C207.527 210.966 208.792 211.685 209.35 213.112L207.746 214.258H207.558C207.36 213.831 207.11 213.508 206.808 213.299C206.501 213.081 206.084 212.966 205.558 212.966C204.876 212.966 204.35 213.206 203.975 213.674C203.6 214.133 203.412 214.851 203.412 215.82C203.412 216.779 203.6 217.497 203.975 217.966C204.36 218.44 204.902 218.674 205.6 218.674C206.11 218.674 206.542 218.544 206.891 218.279C207.251 218.003 207.506 217.607 207.662 217.091L207.829 217.07L209.496 217.987C209.256 218.779 208.819 219.424 208.183 219.924C207.542 220.424 206.683 220.674 205.6 220.674Z" fill="black"/>
<path d="M214.053 220.674C213.012 220.674 212.241 220.393 211.741 219.82C211.241 219.237 210.991 218.414 210.991 217.341V211.154H213.324V217.049C213.324 217.622 213.449 218.039 213.699 218.299C213.949 218.549 214.33 218.674 214.845 218.674C215.481 218.674 215.981 218.466 216.345 218.049C216.705 217.622 216.887 216.945 216.887 216.029V211.154H219.241V220.487H216.991V219.112L216.803 219.07C216.512 219.612 216.147 220.018 215.72 220.279C215.288 220.539 214.731 220.674 214.053 220.674Z" fill="black"/>
<path d="M224.454 220.674C223.62 220.674 222.98 220.445 222.537 219.987C222.089 219.529 221.87 218.836 221.87 217.904V207.404H224.204V217.82C224.204 218.393 224.438 218.674 224.912 218.674C225.047 218.674 225.193 218.654 225.35 218.612L225.475 218.633L225.683 220.445C225.558 220.513 225.381 220.57 225.162 220.612C224.954 220.654 224.714 220.674 224.454 220.674Z" fill="black"/>
<path d="M230.214 220.674C229.172 220.674 228.401 220.393 227.901 219.82C227.401 219.237 227.151 218.414 227.151 217.341V211.154H229.485V217.049C229.485 217.622 229.61 218.039 229.86 218.299C230.11 218.549 230.49 218.674 231.006 218.674C231.641 218.674 232.141 218.466 232.506 218.049C232.865 217.622 233.047 216.945 233.047 216.029V211.154H235.401V220.487H233.151V219.112L232.964 219.07C232.672 219.612 232.308 220.018 231.881 220.279C231.448 220.539 230.891 220.674 230.214 220.674Z" fill="black"/>
<path d="M238.093 220.487V211.154H240.343V212.404L240.51 212.445C240.812 211.935 241.166 211.56 241.573 211.32C241.989 211.086 242.515 210.966 243.156 210.966C243.864 210.966 244.427 211.112 244.843 211.404C245.27 211.685 245.593 212.086 245.802 212.612H245.968C246.26 212.06 246.625 211.648 247.073 211.383C247.531 211.107 248.099 210.966 248.781 210.966C250.708 210.966 251.677 212.049 251.677 214.216V220.487H249.343V214.508C249.343 213.956 249.229 213.56 249.01 213.32C248.802 213.07 248.458 212.945 247.989 212.945C246.698 212.945 246.052 213.81 246.052 215.529V220.487H243.718V214.508C243.718 213.956 243.604 213.56 243.385 213.32C243.161 213.07 242.812 212.945 242.343 212.945C241.744 212.945 241.27 213.154 240.927 213.57C240.593 213.976 240.427 214.612 240.427 215.487V220.487H238.093Z" fill="black"/>
<path d="M264.324 220.487H261.365L257.199 208.112H259.782L262.803 217.341H263.011L265.97 208.112H268.49L264.324 220.487Z" fill="black"/>
<path d="M271.234 210.029C270.802 210.029 270.453 209.904 270.193 209.654C269.927 209.393 269.797 209.06 269.797 208.654C269.797 208.253 269.927 207.924 270.193 207.674C270.453 207.414 270.802 207.279 271.234 207.279C271.51 207.279 271.76 207.341 271.984 207.466C272.203 207.581 272.37 207.737 272.484 207.945C272.609 208.154 272.672 208.393 272.672 208.654C272.672 208.919 272.609 209.154 272.484 209.362C272.37 209.57 272.203 209.737 271.984 209.862C271.76 209.976 271.51 210.029 271.234 210.029ZM270.068 220.487V211.154H272.401V220.487H270.068Z" fill="black"/>
<path d="M280.177 218.258L280.781 219.987C280.531 220.195 280.208 220.362 279.823 220.487C279.448 220.612 279.015 220.674 278.531 220.674C277.515 220.674 276.744 220.398 276.218 219.841C275.703 219.289 275.448 218.487 275.448 217.445V213.008H274.01V211.133H275.448V209.32L277.781 208.945V211.133H280.427V213.008H277.781V217.279C277.781 217.737 277.875 218.07 278.073 218.279C278.265 218.487 278.541 218.591 278.906 218.591C279.323 218.591 279.687 218.482 280.01 218.258H280.177Z" fill="black"/>
<path d="M284.636 220.674C284.037 220.674 283.516 220.56 283.074 220.341C282.626 220.122 282.287 219.794 282.053 219.362C281.813 218.935 281.699 218.419 281.699 217.82C281.699 217.279 281.813 216.82 282.053 216.445C282.287 216.07 282.657 215.768 283.157 215.529C283.657 215.279 284.303 215.091 285.094 214.966C285.662 214.872 286.094 214.773 286.386 214.674C286.678 214.565 286.87 214.44 286.969 214.299C287.063 214.164 287.115 213.987 287.115 213.779C287.115 213.487 287.011 213.268 286.803 213.112C286.594 212.945 286.245 212.862 285.761 212.862C285.245 212.862 284.751 212.982 284.282 213.216C283.808 213.44 283.407 213.737 283.074 214.112H282.886L281.907 212.633C282.376 212.122 282.954 211.716 283.636 211.424C284.329 211.122 285.079 210.966 285.886 210.966C287.12 210.966 288.011 211.232 288.553 211.758C289.105 212.289 289.386 213.029 289.386 213.987V218.049C289.386 218.466 289.574 218.674 289.949 218.674C290.084 218.674 290.225 218.648 290.365 218.591L290.469 218.633L290.657 220.258C290.516 220.357 290.329 220.435 290.094 220.487C289.87 220.529 289.62 220.549 289.344 220.549C288.787 220.549 288.35 220.445 288.032 220.237C287.725 220.018 287.501 219.674 287.365 219.216H287.178C286.719 220.19 285.87 220.674 284.636 220.674ZM285.365 218.904C285.907 218.904 286.334 218.726 286.657 218.362C286.99 218.003 287.157 217.497 287.157 216.841V215.904L286.99 215.862C286.85 215.976 286.662 216.07 286.428 216.154C286.204 216.226 285.886 216.299 285.469 216.383C284.954 216.466 284.584 216.612 284.365 216.82C284.141 217.018 284.032 217.31 284.032 217.695C284.032 218.086 284.147 218.383 284.386 218.591C284.62 218.799 284.949 218.904 285.365 218.904Z" fill="black"/>
<path d="M300.06 216.341H294.06C294.127 217.164 294.357 217.758 294.747 218.133C295.148 218.497 295.69 218.674 296.372 218.674C296.898 218.674 297.33 218.581 297.664 218.383C297.997 218.174 298.268 217.872 298.476 217.466H298.643L300.205 218.466C299.898 219.122 299.44 219.654 298.83 220.07C298.216 220.476 297.398 220.674 296.372 220.674C295.398 220.674 294.56 220.492 293.851 220.133C293.153 219.758 292.612 219.211 292.226 218.487C291.851 217.753 291.664 216.862 291.664 215.82C291.664 214.768 291.862 213.878 292.268 213.154C292.669 212.419 293.211 211.872 293.893 211.508C294.57 211.148 295.341 210.966 296.205 210.966C297.523 210.966 298.528 211.32 299.226 212.029C299.935 212.726 300.289 213.753 300.289 215.112C300.289 215.601 300.268 215.976 300.226 216.237L300.06 216.341ZM298.039 214.841C298.023 214.122 297.857 213.601 297.539 213.279C297.232 212.961 296.789 212.799 296.205 212.799C295.008 212.799 294.31 213.482 294.101 214.841H298.039Z" fill="black"/>
<path d="M163.049 282.315C162.2 282.315 161.434 282.211 160.757 282.003C160.09 281.784 159.533 281.498 159.09 281.149C158.642 280.805 158.304 280.43 158.07 280.024L159.424 278.378H159.632C160.007 278.935 160.476 279.378 161.049 279.711C161.616 280.034 162.283 280.19 163.049 280.19C163.7 280.19 164.195 280.055 164.528 279.774C164.861 279.498 165.028 279.117 165.028 278.628C165.028 278.336 164.971 278.097 164.861 277.899C164.762 277.706 164.59 277.539 164.34 277.399C164.09 277.248 163.757 277.123 163.34 277.024L161.736 276.67C160.622 276.409 159.799 275.982 159.257 275.399C158.715 274.805 158.445 274.039 158.445 273.107C158.445 272.399 158.616 271.784 158.965 271.253C159.309 270.727 159.82 270.315 160.486 270.024C161.163 269.732 161.971 269.586 162.903 269.586C163.846 269.586 164.658 269.711 165.34 269.961C166.017 270.211 166.596 270.597 167.07 271.107L165.861 272.774H165.653C165.288 272.399 164.882 272.123 164.424 271.94C163.976 271.763 163.471 271.67 162.903 271.67C162.221 271.67 161.705 271.789 161.361 272.024C161.012 272.263 160.84 272.586 160.84 273.003C160.84 273.393 160.955 273.706 161.195 273.94C161.445 274.164 161.872 274.347 162.486 274.482L164.111 274.815C165.304 275.065 166.174 275.498 166.715 276.107C167.257 276.722 167.528 277.513 167.528 278.482C167.528 279.263 167.361 279.935 167.028 280.503C166.695 281.076 166.195 281.518 165.528 281.836C164.861 282.154 164.033 282.315 163.049 282.315Z" fill="black"/>
<path d="M169.551 282.128V269.044H171.884V276.294H172.113L174.822 272.794H177.197V272.982L174.03 277.086L177.551 281.919V282.128H175.072L172.113 278.19H171.884V282.128H169.551Z" fill="black"/>
<path d="M180.084 271.669C179.652 271.669 179.303 271.544 179.042 271.294C178.777 271.034 178.646 270.701 178.646 270.294C178.646 269.893 178.777 269.565 179.042 269.315C179.303 269.055 179.652 268.919 180.084 268.919C180.36 268.919 180.61 268.982 180.834 269.107C181.053 269.222 181.219 269.378 181.334 269.586C181.459 269.794 181.521 270.034 181.521 270.294C181.521 270.56 181.459 270.794 181.334 271.003C181.219 271.211 181.053 271.378 180.834 271.503C180.61 271.617 180.36 271.669 180.084 271.669ZM178.917 282.128V272.794H181.251V282.128H178.917Z" fill="black"/>
<path d="M186.464 282.315C185.631 282.315 184.99 282.086 184.547 281.628C184.099 281.169 183.881 280.477 183.881 279.544V269.044H186.214V279.461C186.214 280.034 186.448 280.315 186.922 280.315C187.058 280.315 187.204 280.294 187.36 280.253L187.485 280.274L187.693 282.086C187.568 282.154 187.391 282.211 187.172 282.253C186.964 282.294 186.724 282.315 186.464 282.315Z" fill="black"/>
<path d="M191.828 282.315C190.995 282.315 190.354 282.086 189.912 281.628C189.464 281.169 189.245 280.477 189.245 279.544V269.044H191.578V279.461C191.578 280.034 191.813 280.315 192.287 280.315C192.422 280.315 192.568 280.294 192.724 280.253L192.849 280.274L193.057 282.086C192.932 282.154 192.755 282.211 192.537 282.253C192.328 282.294 192.089 282.315 191.828 282.315Z" fill="black"/>
<path d="M197.692 282.315C197.052 282.315 196.463 282.237 195.922 282.086C195.39 281.935 194.942 281.727 194.567 281.461C194.192 281.201 193.911 280.899 193.734 280.565L195.047 279.149H195.213C195.531 279.565 195.901 279.888 196.317 280.107C196.745 280.315 197.203 280.419 197.692 280.419C198.151 280.419 198.495 280.336 198.734 280.169C198.969 280.003 199.088 279.768 199.088 279.461C199.088 279.227 199.005 279.034 198.838 278.878C198.672 278.711 198.401 278.581 198.026 278.482L196.797 278.19C195.864 277.972 195.182 277.638 194.755 277.19C194.338 276.732 194.13 276.149 194.13 275.44C194.13 274.873 194.276 274.373 194.567 273.94C194.859 273.513 195.276 273.185 195.817 272.961C196.359 272.727 196.984 272.607 197.692 272.607C198.536 272.607 199.239 272.732 199.797 272.982C200.349 273.222 200.781 273.544 201.088 273.961L199.838 275.315H199.672C199.406 275.013 199.109 274.794 198.776 274.669C198.453 274.534 198.094 274.461 197.692 274.461C196.776 274.461 196.317 274.748 196.317 275.315C196.317 275.565 196.401 275.768 196.567 275.919C196.745 276.076 197.052 276.201 197.484 276.294L198.63 276.544C199.573 276.742 200.26 277.065 200.692 277.524C201.135 277.972 201.359 278.576 201.359 279.336C201.359 279.919 201.213 280.44 200.922 280.899C200.63 281.347 200.203 281.69 199.651 281.94C199.094 282.19 198.442 282.315 197.692 282.315Z" fill="black"/>
<path d="M217.884 282.128H215.301L214.384 279.274H209.634L208.717 282.128H206.197L210.467 269.753H213.613L217.884 282.128ZM211.884 272.336L210.301 277.211H213.697L212.113 272.336H211.884Z" fill="black"/>
<path d="M222.441 282.315C221.8 282.315 221.212 282.237 220.67 282.086C220.139 281.935 219.691 281.727 219.316 281.461C218.941 281.201 218.66 280.899 218.482 280.565L219.795 279.149H219.962C220.279 279.565 220.649 279.888 221.066 280.107C221.493 280.315 221.951 280.419 222.441 280.419C222.899 280.419 223.243 280.336 223.482 280.169C223.717 280.003 223.837 279.768 223.837 279.461C223.837 279.227 223.753 279.034 223.587 278.878C223.42 278.711 223.149 278.581 222.774 278.482L221.545 278.19C220.613 277.972 219.93 277.638 219.503 277.19C219.087 276.732 218.878 276.149 218.878 275.44C218.878 274.873 219.024 274.373 219.316 273.94C219.607 273.513 220.024 273.185 220.566 272.961C221.107 272.727 221.732 272.607 222.441 272.607C223.285 272.607 223.988 272.732 224.545 272.982C225.097 273.222 225.529 273.544 225.837 273.961L224.587 275.315H224.42C224.154 275.013 223.857 274.794 223.524 274.669C223.201 274.534 222.842 274.461 222.441 274.461C221.524 274.461 221.066 274.748 221.066 275.315C221.066 275.565 221.149 275.768 221.316 275.919C221.493 276.076 221.8 276.201 222.232 276.294L223.378 276.544C224.321 276.742 225.008 277.065 225.441 277.524C225.883 277.972 226.107 278.576 226.107 279.336C226.107 279.919 225.962 280.44 225.67 280.899C225.378 281.347 224.951 281.69 224.399 281.94C223.842 282.19 223.191 282.315 222.441 282.315Z" fill="black"/>
<path d="M231.046 282.315C230.405 282.315 229.817 282.237 229.275 282.086C228.744 281.935 228.296 281.727 227.921 281.461C227.546 281.201 227.264 280.899 227.087 280.565L228.4 279.149H228.567C228.884 279.565 229.254 279.888 229.671 280.107C230.098 280.315 230.556 280.419 231.046 280.419C231.504 280.419 231.848 280.336 232.087 280.169C232.322 280.003 232.442 279.768 232.442 279.461C232.442 279.227 232.358 279.034 232.192 278.878C232.025 278.711 231.754 278.581 231.379 278.482L230.15 278.19C229.218 277.972 228.535 277.638 228.108 277.19C227.692 276.732 227.483 276.149 227.483 275.44C227.483 274.873 227.629 274.373 227.921 273.94C228.212 273.513 228.629 273.185 229.171 272.961C229.712 272.727 230.337 272.607 231.046 272.607C231.889 272.607 232.593 272.732 233.15 272.982C233.702 273.222 234.134 273.544 234.442 273.961L233.192 275.315H233.025C232.759 275.013 232.462 274.794 232.129 274.669C231.806 274.534 231.447 274.461 231.046 274.461C230.129 274.461 229.671 274.748 229.671 275.315C229.671 275.565 229.754 275.768 229.921 275.919C230.098 276.076 230.405 276.201 230.837 276.294L231.983 276.544C232.926 276.742 233.613 277.065 234.046 277.524C234.488 277.972 234.712 278.576 234.712 279.336C234.712 279.919 234.567 280.44 234.275 280.899C233.983 281.347 233.556 281.69 233.004 281.94C232.447 282.19 231.796 282.315 231.046 282.315Z" fill="black"/>
<path d="M244.505 277.982H238.505C238.572 278.805 238.802 279.399 239.192 279.774C239.593 280.138 240.135 280.315 240.817 280.315C241.343 280.315 241.776 280.222 242.109 280.024C242.442 279.815 242.713 279.513 242.921 279.107H243.088L244.651 280.107C244.343 280.763 243.885 281.294 243.276 281.711C242.661 282.117 241.843 282.315 240.817 282.315C239.843 282.315 239.005 282.133 238.296 281.774C237.598 281.399 237.057 280.852 236.671 280.128C236.296 279.393 236.109 278.503 236.109 277.461C236.109 276.409 236.307 275.518 236.713 274.794C237.114 274.06 237.656 273.513 238.338 273.149C239.015 272.789 239.786 272.607 240.651 272.607C241.968 272.607 242.973 272.961 243.671 273.669C244.38 274.367 244.734 275.393 244.734 276.753C244.734 277.242 244.713 277.617 244.671 277.878L244.505 277.982ZM242.484 276.482C242.468 275.763 242.302 275.242 241.984 274.919C241.677 274.602 241.234 274.44 240.651 274.44C239.453 274.44 238.755 275.123 238.546 276.482H242.484Z" fill="black"/>
<path d="M249.795 282.315C249.155 282.315 248.566 282.237 248.024 282.086C247.493 281.935 247.045 281.727 246.67 281.461C246.295 281.201 246.014 280.899 245.837 280.565L247.149 279.149H247.316C247.634 279.565 248.004 279.888 248.42 280.107C248.847 280.315 249.306 280.419 249.795 280.419C250.254 280.419 250.597 280.336 250.837 280.169C251.071 280.003 251.191 279.768 251.191 279.461C251.191 279.227 251.108 279.034 250.941 278.878C250.774 278.711 250.504 278.581 250.129 278.482L248.899 278.19C247.967 277.972 247.285 277.638 246.858 277.19C246.441 276.732 246.233 276.149 246.233 275.44C246.233 274.873 246.379 274.373 246.67 273.94C246.962 273.513 247.379 273.185 247.92 272.961C248.462 272.727 249.087 272.607 249.795 272.607C250.639 272.607 251.342 272.732 251.899 272.982C252.451 273.222 252.884 273.544 253.191 273.961L251.941 275.315H251.774C251.509 275.013 251.212 274.794 250.879 274.669C250.556 274.534 250.196 274.461 249.795 274.461C248.879 274.461 248.42 274.748 248.42 275.315C248.42 275.565 248.504 275.768 248.67 275.919C248.847 276.076 249.155 276.201 249.587 276.294L250.733 276.544C251.675 276.742 252.363 277.065 252.795 277.524C253.238 277.972 253.462 278.576 253.462 279.336C253.462 279.919 253.316 280.44 253.024 280.899C252.733 281.347 252.306 281.69 251.754 281.94C251.196 282.19 250.545 282.315 249.795 282.315Z" fill="black"/>
<path d="M258.4 282.315C257.759 282.315 257.171 282.237 256.629 282.086C256.098 281.935 255.65 281.727 255.275 281.461C254.9 281.201 254.619 280.899 254.442 280.565L255.754 279.149H255.921C256.239 279.565 256.608 279.888 257.025 280.107C257.452 280.315 257.911 280.419 258.4 280.419C258.858 280.419 259.202 280.336 259.442 280.169C259.676 280.003 259.796 279.768 259.796 279.461C259.796 279.227 259.713 279.034 259.546 278.878C259.379 278.711 259.108 278.581 258.733 278.482L257.504 278.19C256.572 277.972 255.89 277.638 255.463 277.19C255.046 276.732 254.838 276.149 254.838 275.44C254.838 274.873 254.983 274.373 255.275 273.94C255.567 273.513 255.983 273.185 256.525 272.961C257.067 272.727 257.692 272.607 258.4 272.607C259.244 272.607 259.947 272.732 260.504 272.982C261.056 273.222 261.489 273.544 261.796 273.961L260.546 275.315H260.379C260.114 275.013 259.817 274.794 259.483 274.669C259.161 274.534 258.801 274.461 258.4 274.461C257.483 274.461 257.025 274.748 257.025 275.315C257.025 275.565 257.108 275.768 257.275 275.919C257.452 276.076 257.759 276.201 258.192 276.294L259.338 276.544C260.28 276.742 260.968 277.065 261.4 277.524C261.843 277.972 262.067 278.576 262.067 279.336C262.067 279.919 261.921 280.44 261.629 280.899C261.338 281.347 260.911 281.69 260.358 281.94C259.801 282.19 259.15 282.315 258.4 282.315Z" fill="black"/>
<path d="M263.984 282.128V272.794H266.234V274.044L266.401 274.086C266.703 273.576 267.057 273.201 267.463 272.961C267.88 272.727 268.406 272.607 269.047 272.607C269.755 272.607 270.317 272.753 270.734 273.044C271.161 273.326 271.484 273.727 271.692 274.253H271.859C272.151 273.701 272.515 273.289 272.963 273.024C273.422 272.748 273.989 272.607 274.672 272.607C276.599 272.607 277.567 273.69 277.567 275.857V282.128H275.234V276.149C275.234 275.597 275.12 275.201 274.901 274.961C274.692 274.711 274.349 274.586 273.88 274.586C272.588 274.586 271.942 275.451 271.942 277.169V282.128H269.609V276.149C269.609 275.597 269.495 275.201 269.276 274.961C269.052 274.711 268.703 274.586 268.234 274.586C267.635 274.586 267.161 274.794 266.817 275.211C266.484 275.617 266.317 276.253 266.317 277.128V282.128H263.984Z" fill="black"/>
<path d="M288.003 277.982H282.003C282.07 278.805 282.3 279.399 282.69 279.774C283.091 280.138 283.633 280.315 284.315 280.315C284.841 280.315 285.274 280.222 285.607 280.024C285.94 279.815 286.211 279.513 286.419 279.107H286.586L288.149 280.107C287.841 280.763 287.383 281.294 286.774 281.711C286.159 282.117 285.341 282.315 284.315 282.315C283.341 282.315 282.503 282.133 281.794 281.774C281.097 281.399 280.555 280.852 280.169 280.128C279.794 279.393 279.607 278.503 279.607 277.461C279.607 276.409 279.805 275.518 280.211 274.794C280.612 274.06 281.154 273.513 281.836 273.149C282.513 272.789 283.284 272.607 284.149 272.607C285.466 272.607 286.472 272.961 287.169 273.669C287.878 274.367 288.232 275.393 288.232 276.753C288.232 277.242 288.211 277.617 288.169 277.878L288.003 277.982ZM285.982 276.482C285.966 275.763 285.8 275.242 285.482 274.919C285.175 274.602 284.732 274.44 284.149 274.44C282.951 274.44 282.253 275.123 282.044 276.482H285.982Z" fill="black"/>
<path d="M290.272 282.128V272.794H292.522V274.169L292.689 274.211C293.272 273.143 294.215 272.607 295.522 272.607C296.59 272.607 297.377 272.909 297.877 273.503C298.387 274.086 298.647 274.94 298.647 276.065V282.128H296.314V276.357C296.314 275.732 296.189 275.284 295.939 275.003C295.689 274.727 295.293 274.586 294.752 274.586C294.069 274.586 293.543 274.81 293.168 275.253C292.793 275.685 292.606 276.367 292.606 277.294V282.128H290.272Z" fill="black"/>
<path d="M306.287 279.899L306.892 281.628C306.642 281.836 306.319 282.003 305.933 282.128C305.558 282.253 305.126 282.315 304.642 282.315C303.626 282.315 302.855 282.039 302.329 281.482C301.813 280.93 301.558 280.128 301.558 279.086V274.649H300.121V272.774H301.558V270.961L303.892 270.586V272.774H306.537V274.649H303.892V278.92C303.892 279.378 303.985 279.711 304.183 279.92C304.376 280.128 304.652 280.232 305.017 280.232C305.433 280.232 305.798 280.123 306.121 279.899H306.287Z" fill="black"/>
<path d="M311.476 282.315C310.835 282.315 310.247 282.237 309.705 282.086C309.174 281.935 308.726 281.727 308.351 281.461C307.976 281.201 307.695 280.899 307.518 280.565L308.83 279.149H308.997C309.315 279.565 309.684 279.888 310.101 280.107C310.528 280.315 310.986 280.419 311.476 280.419C311.934 280.419 312.278 280.336 312.518 280.169C312.752 280.003 312.872 279.768 312.872 279.461C312.872 279.227 312.789 279.034 312.622 278.878C312.455 278.711 312.184 278.581 311.809 278.482L310.58 278.19C309.648 277.972 308.966 277.638 308.539 277.19C308.122 276.732 307.914 276.149 307.914 275.44C307.914 274.873 308.059 274.373 308.351 273.94C308.643 273.513 309.059 273.185 309.601 272.961C310.143 272.727 310.768 272.607 311.476 272.607C312.32 272.607 313.023 272.732 313.58 272.982C314.132 273.222 314.565 273.544 314.872 273.961L313.622 275.315H313.455C313.19 275.013 312.893 274.794 312.559 274.669C312.236 274.534 311.877 274.461 311.476 274.461C310.559 274.461 310.101 274.748 310.101 275.315C310.101 275.565 310.184 275.768 310.351 275.919C310.528 276.076 310.835 276.201 311.268 276.294L312.414 276.544C313.356 276.742 314.044 277.065 314.476 277.524C314.919 277.972 315.143 278.576 315.143 279.336C315.143 279.919 314.997 280.44 314.705 280.899C314.414 281.347 313.986 281.69 313.434 281.94C312.877 282.19 312.226 282.315 311.476 282.315Z" fill="black"/>
<path d="M169.445 343.769H166.861L165.945 340.915H161.195L160.278 343.769H157.757L162.028 331.394H165.174L169.445 343.769ZM163.445 333.977L161.861 338.852H165.257L163.674 333.977H163.445Z" fill="black"/>
<path d="M175.064 343.956C174.158 343.956 173.361 343.769 172.668 343.394C171.97 343.008 171.429 342.451 171.043 341.727C170.653 341.008 170.46 340.133 170.46 339.102C170.46 338.076 170.653 337.201 171.043 336.477C171.429 335.743 171.965 335.185 172.647 334.81C173.34 334.435 174.132 334.248 175.022 334.248C176.991 334.248 178.257 334.967 178.814 336.394L177.21 337.539H177.022C176.825 337.112 176.575 336.789 176.272 336.581C175.965 336.362 175.549 336.248 175.022 336.248C174.34 336.248 173.814 336.487 173.439 336.956C173.064 337.414 172.877 338.133 172.877 339.102C172.877 340.06 173.064 340.779 173.439 341.248C173.825 341.722 174.366 341.956 175.064 341.956C175.575 341.956 176.007 341.826 176.356 341.56C176.715 341.284 176.97 340.888 177.127 340.373L177.293 340.352L178.96 341.269C178.72 342.06 178.283 342.706 177.647 343.206C177.007 343.706 176.147 343.956 175.064 343.956Z" fill="black"/>
<path d="M182.893 343.956C182.294 343.956 181.773 343.842 181.33 343.623C180.882 343.404 180.544 343.076 180.309 342.644C180.07 342.217 179.955 341.701 179.955 341.102C179.955 340.56 180.07 340.102 180.309 339.727C180.544 339.352 180.913 339.05 181.413 338.81C181.913 338.56 182.559 338.373 183.351 338.248C183.919 338.154 184.351 338.055 184.643 337.956C184.934 337.847 185.127 337.722 185.226 337.581C185.32 337.446 185.372 337.269 185.372 337.06C185.372 336.769 185.268 336.55 185.059 336.394C184.851 336.227 184.502 336.144 184.018 336.144C183.502 336.144 183.007 336.263 182.538 336.498C182.064 336.722 181.663 337.019 181.33 337.394H181.143L180.163 335.914C180.632 335.404 181.21 334.998 181.893 334.706C182.585 334.404 183.335 334.248 184.143 334.248C185.377 334.248 186.268 334.513 186.809 335.039C187.361 335.571 187.643 336.31 187.643 337.269V341.331C187.643 341.748 187.83 341.956 188.205 341.956C188.34 341.956 188.481 341.93 188.622 341.873L188.726 341.914L188.913 343.539C188.773 343.638 188.585 343.717 188.351 343.769C188.127 343.81 187.877 343.831 187.601 343.831C187.044 343.831 186.606 343.727 186.288 343.519C185.981 343.3 185.757 342.956 185.622 342.498H185.434C184.976 343.472 184.127 343.956 182.893 343.956ZM183.622 342.185C184.163 342.185 184.59 342.008 184.913 341.644C185.247 341.284 185.413 340.779 185.413 340.123V339.185L185.247 339.144C185.106 339.258 184.919 339.352 184.684 339.435C184.46 339.508 184.143 339.581 183.726 339.664C183.21 339.748 182.84 339.894 182.622 340.102C182.398 340.3 182.288 340.592 182.288 340.977C182.288 341.368 182.403 341.664 182.643 341.873C182.877 342.081 183.205 342.185 183.622 342.185Z" fill="black"/>
<path d="M193.691 343.956C192.951 343.956 192.3 343.774 191.733 343.414C191.175 343.055 190.733 342.513 190.399 341.789C190.076 341.071 189.92 340.175 189.92 339.102C189.92 338.034 190.087 337.138 190.42 336.414C190.753 335.696 191.212 335.154 191.795 334.789C192.378 334.43 193.05 334.248 193.816 334.248C194.399 334.248 194.899 334.352 195.316 334.56C195.743 334.758 196.108 335.071 196.399 335.498L196.587 335.456V330.685H198.92V343.769H196.587V342.56L196.399 342.519C196.149 342.967 195.795 343.321 195.337 343.581C194.889 343.831 194.342 343.956 193.691 343.956ZM194.462 341.956C195.128 341.956 195.649 341.722 196.024 341.248C196.41 340.779 196.608 340.06 196.608 339.102C196.608 338.144 196.41 337.43 196.024 336.956C195.649 336.487 195.128 336.248 194.462 336.248C193.764 336.248 193.238 336.477 192.878 336.935C192.514 337.394 192.337 338.118 192.337 339.102C192.337 340.092 192.514 340.81 192.878 341.269C193.238 341.727 193.764 341.956 194.462 341.956Z" fill="black"/>
<path d="M209.502 339.623H203.502C203.569 340.446 203.798 341.039 204.189 341.414C204.59 341.779 205.132 341.956 205.814 341.956C206.34 341.956 206.772 341.862 207.106 341.664C207.439 341.456 207.71 341.154 207.918 340.748H208.085L209.647 341.748C209.34 342.404 208.882 342.935 208.272 343.352C207.658 343.758 206.84 343.956 205.814 343.956C204.84 343.956 204.002 343.774 203.293 343.414C202.595 343.039 202.054 342.493 201.668 341.769C201.293 341.034 201.106 340.144 201.106 339.102C201.106 338.05 201.304 337.159 201.71 336.435C202.111 335.701 202.653 335.154 203.335 334.789C204.012 334.43 204.783 334.248 205.647 334.248C206.965 334.248 207.97 334.602 208.668 335.31C209.377 336.008 209.731 337.034 209.731 338.394C209.731 338.883 209.71 339.258 209.668 339.519L209.502 339.623ZM207.481 338.123C207.465 337.404 207.298 336.883 206.981 336.56C206.673 336.243 206.231 336.081 205.647 336.081C204.449 336.081 203.752 336.763 203.543 338.123H207.481Z" fill="black"/>
<path d="M211.771 343.769V334.435H214.021V335.685L214.188 335.727C214.49 335.217 214.844 334.842 215.25 334.602C215.667 334.368 216.193 334.248 216.834 334.248C217.542 334.248 218.105 334.394 218.521 334.685C218.948 334.967 219.271 335.368 219.48 335.894H219.646C219.938 335.342 220.302 334.93 220.75 334.664C221.209 334.388 221.776 334.248 222.459 334.248C224.386 334.248 225.355 335.331 225.355 337.498V343.769H223.021V337.789C223.021 337.237 222.907 336.842 222.688 336.602C222.48 336.352 222.136 336.227 221.667 336.227C220.375 336.227 219.73 337.092 219.73 338.81V343.769H217.396V337.789C217.396 337.237 217.282 336.842 217.063 336.602C216.839 336.352 216.49 336.227 216.021 336.227C215.422 336.227 214.948 336.435 214.605 336.852C214.271 337.258 214.105 337.894 214.105 338.769V343.769H211.771Z" fill="black"/>
<path d="M229.082 333.31C228.649 333.31 228.3 333.185 228.04 332.935C227.774 332.675 227.644 332.342 227.644 331.935C227.644 331.534 227.774 331.206 228.04 330.956C228.3 330.696 228.649 330.56 229.082 330.56C229.358 330.56 229.608 330.623 229.832 330.748C230.05 330.862 230.217 331.019 230.332 331.227C230.457 331.435 230.519 331.675 230.519 331.935C230.519 332.201 230.457 332.435 230.332 332.644C230.217 332.852 230.05 333.019 229.832 333.144C229.608 333.258 229.358 333.31 229.082 333.31ZM227.915 343.769V334.435H230.248V343.769H227.915Z" fill="black"/>
<path d="M237.024 343.956C236.118 343.956 235.321 343.769 234.628 343.394C233.93 343.008 233.389 342.451 233.003 341.727C232.613 341.008 232.42 340.133 232.42 339.102C232.42 338.076 232.613 337.201 233.003 336.477C233.389 335.743 233.925 335.185 234.607 334.81C235.3 334.435 236.092 334.248 236.982 334.248C238.951 334.248 240.217 334.967 240.774 336.394L239.17 337.539H238.982C238.785 337.112 238.535 336.789 238.232 336.581C237.925 336.362 237.508 336.248 236.982 336.248C236.3 336.248 235.774 336.487 235.399 336.956C235.024 337.414 234.837 338.133 234.837 339.102C234.837 340.06 235.024 340.779 235.399 341.248C235.785 341.722 236.326 341.956 237.024 341.956C237.535 341.956 237.967 341.826 238.316 341.56C238.675 341.284 238.93 340.888 239.087 340.373L239.253 340.352L240.92 341.269C240.68 342.06 240.243 342.706 239.607 343.206C238.967 343.706 238.107 343.956 237.024 343.956Z" fill="black"/>
<path d="M249.356 343.769H246.897V331.394H249.356V343.769Z" fill="black"/>
<path d="M252.316 343.769V334.435H254.566V335.81L254.733 335.852C255.316 334.784 256.259 334.248 257.566 334.248C258.634 334.248 259.421 334.55 259.921 335.144C260.431 335.727 260.691 336.581 260.691 337.706V343.769H258.358V337.998C258.358 337.373 258.233 336.925 257.983 336.644C257.733 336.368 257.337 336.227 256.796 336.227C256.113 336.227 255.587 336.451 255.212 336.894C254.837 337.326 254.65 338.008 254.65 338.935V343.769H252.316Z" fill="black"/>
<path d="M263.519 343.769V336.289H262.206V334.414H263.519C263.435 334.029 263.394 333.659 263.394 333.31C263.394 332.727 263.524 332.227 263.79 331.81C264.066 331.383 264.456 331.055 264.956 330.831C265.467 330.612 266.071 330.498 266.769 330.498C267.795 330.498 268.566 330.68 269.081 331.039L268.54 332.769L268.352 332.789C268.003 332.555 267.55 332.435 266.998 332.435C266.581 332.435 266.258 332.539 266.04 332.748C265.831 332.946 265.727 333.222 265.727 333.581C265.727 333.737 265.732 333.873 265.748 333.998C265.774 334.123 265.816 334.263 265.873 334.414H268.54V336.289H265.873V343.769H263.519Z" fill="black"/>
<path d="M274.045 343.956C273.139 343.956 272.342 343.769 271.65 343.394C270.952 343.008 270.41 342.451 270.025 341.727C269.65 341.008 269.462 340.133 269.462 339.102C269.462 338.076 269.65 337.201 270.025 336.477C270.41 335.743 270.952 335.185 271.65 334.81C272.342 334.435 273.139 334.248 274.045 334.248C274.962 334.248 275.764 334.435 276.462 334.81C277.155 335.185 277.691 335.743 278.066 336.477C278.452 337.201 278.65 338.076 278.65 339.102C278.65 340.133 278.452 341.008 278.066 341.727C277.691 342.451 277.155 343.008 276.462 343.394C275.764 343.769 274.962 343.956 274.045 343.956ZM274.045 341.956C275.504 341.956 276.233 341.008 276.233 339.102C276.233 338.118 276.045 337.394 275.67 336.935C275.295 336.477 274.754 336.248 274.045 336.248C272.598 336.248 271.879 337.201 271.879 339.102C271.879 341.008 272.598 341.956 274.045 341.956Z" fill="black"/>
<path d="M280.83 343.769V334.435H283.101V335.831L283.267 335.852C283.502 335.342 283.799 334.967 284.163 334.727C284.523 334.477 284.965 334.352 285.497 334.352C286.023 334.352 286.424 334.446 286.705 334.623L286.309 336.644L286.142 336.685C285.986 336.618 285.835 336.571 285.684 336.54C285.543 336.514 285.377 336.498 285.184 336.498C284.528 336.498 284.028 336.727 283.684 337.185C283.335 337.644 283.163 338.383 283.163 339.394V343.769H280.83Z" fill="black"/>
<path d="M288.149 343.769V334.435H290.399V335.685L290.565 335.727C290.867 335.217 291.222 334.842 291.628 334.602C292.045 334.368 292.571 334.248 293.211 334.248C293.92 334.248 294.482 334.394 294.899 334.685C295.326 334.967 295.649 335.368 295.857 335.894H296.024C296.315 335.342 296.68 334.93 297.128 334.664C297.586 334.388 298.154 334.248 298.836 334.248C300.763 334.248 301.732 335.331 301.732 337.498V343.769H299.399V337.789C299.399 337.237 299.284 336.842 299.065 336.602C298.857 336.352 298.513 336.227 298.045 336.227C296.753 336.227 296.107 337.092 296.107 338.81V343.769H293.774V337.789C293.774 337.237 293.659 336.842 293.44 336.602C293.216 336.352 292.867 336.227 292.399 336.227C291.8 336.227 291.326 336.435 290.982 336.852C290.649 337.258 290.482 337.894 290.482 338.769V343.769H288.149Z" fill="black"/>
<path d="M306.584 343.956C305.985 343.956 305.464 343.842 305.021 343.623C304.574 343.404 304.235 343.076 304.001 342.644C303.761 342.217 303.646 341.701 303.646 341.102C303.646 340.56 303.761 340.102 304.001 339.727C304.235 339.352 304.605 339.05 305.105 338.81C305.605 338.56 306.251 338.373 307.042 338.248C307.61 338.154 308.042 338.055 308.334 337.956C308.626 337.847 308.818 337.722 308.917 337.581C309.011 337.446 309.063 337.269 309.063 337.06C309.063 336.769 308.959 336.55 308.751 336.394C308.542 336.227 308.193 336.144 307.709 336.144C307.193 336.144 306.699 336.263 306.23 336.498C305.756 336.722 305.355 337.019 305.021 337.394H304.834L303.855 335.914C304.324 335.404 304.902 334.998 305.584 334.706C306.277 334.404 307.027 334.248 307.834 334.248C309.068 334.248 309.959 334.513 310.501 335.039C311.053 335.571 311.334 336.31 311.334 337.269V341.331C311.334 341.748 311.521 341.956 311.896 341.956C312.032 341.956 312.173 341.93 312.313 341.873L312.417 341.914L312.605 343.539C312.464 343.638 312.277 343.717 312.042 343.769C311.818 343.81 311.568 343.831 311.292 343.831C310.735 343.831 310.298 343.727 309.98 343.519C309.673 343.3 309.449 342.956 309.313 342.498H309.126C308.667 343.472 307.818 343.956 306.584 343.956ZM307.313 342.185C307.855 342.185 308.282 342.008 308.605 341.644C308.938 341.284 309.105 340.779 309.105 340.123V339.185L308.938 339.144C308.798 339.258 308.61 339.352 308.376 339.435C308.152 339.508 307.834 339.581 307.417 339.664C306.902 339.748 306.532 339.894 306.313 340.102C306.089 340.3 305.98 340.592 305.98 340.977C305.98 341.368 306.094 341.664 306.334 341.873C306.568 342.081 306.896 342.185 307.313 342.185Z" fill="black"/>
<path d="M319.216 341.54L319.82 343.269C319.57 343.477 319.247 343.644 318.862 343.769C318.487 343.894 318.054 343.956 317.57 343.956C316.554 343.956 315.783 343.68 315.257 343.123C314.742 342.571 314.487 341.769 314.487 340.727V336.29H313.049V334.415H314.487V332.602L316.82 332.227V334.415H319.466V336.29H316.82V340.56C316.82 341.019 316.914 341.352 317.112 341.56C317.304 341.769 317.58 341.873 317.945 341.873C318.362 341.873 318.726 341.764 319.049 341.54H319.216Z" fill="black"/>
<path d="M322.55 333.31C322.118 333.31 321.769 333.185 321.509 332.935C321.243 332.675 321.113 332.342 321.113 331.935C321.113 331.534 321.243 331.206 321.509 330.956C321.769 330.696 322.118 330.56 322.55 330.56C322.826 330.56 323.076 330.623 323.3 330.748C323.519 330.862 323.686 331.019 323.8 331.227C323.925 331.435 323.988 331.675 323.988 331.935C323.988 332.201 323.925 332.435 323.8 332.644C323.686 332.852 323.519 333.019 323.3 333.144C323.076 333.258 322.826 333.31 322.55 333.31ZM321.384 343.769V334.435H323.717V343.769H321.384Z" fill="black"/>
<path d="M330.472 343.956C329.566 343.956 328.769 343.769 328.076 343.394C327.378 343.008 326.836 342.451 326.451 341.727C326.076 341.008 325.889 340.133 325.889 339.102C325.889 338.076 326.076 337.201 326.451 336.477C326.836 335.743 327.378 335.185 328.076 334.81C328.769 334.435 329.566 334.248 330.472 334.248C331.389 334.248 332.191 334.435 332.889 334.81C333.581 335.185 334.118 335.743 334.493 336.477C334.878 337.201 335.076 338.076 335.076 339.102C335.076 340.133 334.878 341.008 334.493 341.727C334.118 342.451 333.581 343.008 332.889 343.394C332.191 343.769 331.389 343.956 330.472 343.956ZM330.472 341.956C331.93 341.956 332.659 341.008 332.659 339.102C332.659 338.118 332.472 337.394 332.097 336.935C331.722 336.477 331.18 336.248 330.472 336.248C329.024 336.248 328.305 337.201 328.305 339.102C328.305 341.008 329.024 341.956 330.472 341.956Z" fill="black"/>
<path d="M337.256 343.769V334.435H339.506V335.81L339.673 335.852C340.256 334.784 341.199 334.248 342.506 334.248C343.574 334.248 344.361 334.55 344.861 335.144C345.371 335.727 345.631 336.581 345.631 337.706V343.769H343.298V337.998C343.298 337.373 343.173 336.925 342.923 336.644C342.673 336.368 342.277 336.227 341.736 336.227C341.053 336.227 340.527 336.451 340.152 336.894C339.777 337.326 339.59 338.008 339.59 338.935V343.769H337.256Z" fill="black"/>
</g>
<defs>
<clipPath id="clip0_421_2">
<rect width="500" height="500" fill="white"/>
</clipPath>
</defs>
</svg>
