<?xml version="1.0" encoding="UTF-8"?>
<svg id="Layer_2" data-name="Layer 2" xmlns="http://www.w3.org/2000/svg" xmlns:xlink="http://www.w3.org/1999/xlink" viewBox="0 0 193.99 112.42">
  <defs>
    <style>
      .cls-1 {
        fill: #4d4d4d;
      }

      .cls-1, .cls-2, .cls-3, .cls-4, .cls-5, .cls-6, .cls-7 {
        stroke-width: 0px;
      }

      .cls-2 {
        fill: #b600a3;
      }

      .cls-3 {
        fill: #7400a3;
      }

      .cls-4 {
        fill: url(#radial-gradient-2);
      }

      .cls-5 {
        fill: url(#radial-gradient);
      }

      .cls-6 {
        fill: url(#radial-gradient-3);
      }

      .cls-7 {
        fill: url(#radial-gradient-4);
      }
    </style>
    <radialGradient id="radial-gradient" cx="88.03" cy="103.15" fx="88.03" fy="103.15" r="86.98" gradientTransform="translate(148.51 149.54) rotate(-178.87)" gradientUnits="userSpaceOnUse">
      <stop offset="0" stop-color="#eaa92b"/>
      <stop offset=".03" stop-color="#e89a30"/>
      <stop offset=".16" stop-color="#e36544"/>
      <stop offset=".28" stop-color="#df3b53"/>
      <stop offset=".39" stop-color="#dc1d5e"/>
      <stop offset=".48" stop-color="#da0b65"/>
      <stop offset=".55" stop-color="#da0568"/>
      <stop offset=".89" stop-color="#7400a3"/>
      <stop offset="1" stop-color="#760ca5"/>
    </radialGradient>
    <radialGradient id="radial-gradient-2" cx="106.84" cy="79.06" fx="106.84" fy="79.06" r="46.93" gradientTransform="translate(148.51 149.54) rotate(-178.87)" gradientUnits="userSpaceOnUse">
      <stop offset="0" stop-color="#e7ab2b"/>
      <stop offset=".16" stop-color="#dc7b3e"/>
      <stop offset=".33" stop-color="#d3514e"/>
      <stop offset=".48" stop-color="#cc335b"/>
      <stop offset=".61" stop-color="#c82162"/>
      <stop offset=".7" stop-color="#c71b65"/>
    </radialGradient>
    <radialGradient id="radial-gradient-3" cx="116.06" cy="117.72" fx="116.06" fy="117.72" r="64.58" gradientTransform="translate(148.51 149.54) rotate(-178.87)" gradientUnits="userSpaceOnUse">
      <stop offset="0" stop-color="#3a0046"/>
      <stop offset=".16" stop-color="#66084f"/>
      <stop offset=".32" stop-color="#901058"/>
      <stop offset=".48" stop-color="#ae165f"/>
      <stop offset=".61" stop-color="#c01963"/>
      <stop offset=".7" stop-color="#c71b65"/>
    </radialGradient>
    <radialGradient id="radial-gradient-4" cx="-17.29" cy="85.52" fx="-17.29" fy="85.52" r="67.25" gradientTransform="translate(246.33 225.54) rotate(146.77) scale(1.95 1.69) skewX(-2.87)" xlink:href="#radial-gradient"/>
  </defs>
  <g id="OBJECTS">
    <g>
      <path class="cls-1" d="m.01,55.33c-.6,30.44,23.59,55.6,54.03,56.2l27.42.54c7.61.15,13.9-5.9,14.05-13.5s-5.85-13.84-13.42-14.04l-22.71-.45c-15.23-.3-27.33-12.89-27.03-28.11l.03-1.29c.3-15.23,12.89-27.33,28.12-27.03l22.71.45c7.57.1,13.81-5.92,13.96-13.5.15-7.61-5.9-13.9-13.5-14.05L56.24.01C25.8-.59.64,23.6.04,54.04l-.03,1.29Z"/>
      <path class="cls-3" d="m107.77,102.11c6.13,10.66,20.45,13.23,32.55,6.13l.03.06,39.98-26.18c12.35-8.09,17.22-23.6,10.87-34.65-6.35-11.04-21.51-13.43-33.87-5.34-.25.17-.49.36-.73.53l-37.18,24.35c-.26.16-.52.29-.77.46s-.48.35-.73.53l-.53.35v.02c-11.4,8.3-15.73,23.09-9.61,33.74Z"/>
      <g>
        <path class="cls-5" d="m.01,55.33c-.6,30.44,23.59,55.6,54.03,56.2l27.42.54c7.61.15,13.9-5.9,14.05-13.5s-5.85-13.84-13.42-14.04l-20.19-.4c-.23,0-.45,0-.67,0s-.45-.02-.67-.03l-1.18-.02c-1.28-.03-2.53-.14-3.76-.34C28.3,80.5,7.13,57.77,6.04,30.06,2.36,37.27.21,45.4.04,54.04l-.03,1.29Z"/>
        <path class="cls-4" d="m55.62,83.75c-13.41-2.1-23.54-13.83-23.27-27.78l.03-1.29c.05-2.78.52-5.45,1.34-7.97-.19-1.76-.29-3.55-.25-5.37C33.93,18.28,60.12.09,83.19.54L56.24.01C34.44-.42,15.35,11.87,6.04,30.06c1.09,27.71,22.26,50.44,49.58,53.69Z"/>
        <path class="cls-6" d="m60.5,27.65l22.71.45c7.57.1,13.81-5.92,13.96-13.5.15-7.45-5.65-13.62-13.03-14.01-.32-.01-.63-.04-.95-.04C60.12.09,33.93,18.28,33.47,41.34c-.04,1.82.06,3.61.25,5.37,3.65-11.26,14.33-19.3,26.78-19.06Z"/>
      </g>
      <path class="cls-2" d="m110.07,11.32c-8.08,9.26-5.85,23.65,4.8,32.77l-.04.05,37.77,29.27c11.67,9.05,27.92,8.6,36.3-1,8.37-9.6,5.7-24.71-5.98-33.76-.24-.19-.49-.34-.74-.52l-35.13-27.23c-.23-.19-.45-.4-.69-.58s-.49-.34-.74-.52l-.5-.39-.02.02c-11.56-8.09-26.96-7.37-35.04,1.89Z"/>
      <path class="cls-7" d="m139.21,109.21s-14.53-45,21.74-68.91c-1.15.56-2.29,1.17-3.41,1.91-.25.17-.49.36-.73.53l-37.18,24.36c-.26.16-.52.29-.77.46s-.48.36-.73.53l-.53.35v.03c-11.39,8.3-15.71,23.12-9.56,33.82,5.91,10.28,19.4,13.05,31.18,6.95Z"/>
    </g>
  </g>
</svg>