<svg width="16" height="16" viewBox="0 0 16 16" fill="none" xmlns="http://www.w3.org/2000/svg">
<g clip-path="url(#clip0_25_340)">
<g clip-path="url(#clip1_25_340)">
<mask id="mask0_25_340" style="mask-type:luminance" maskUnits="userSpaceOnUse" x="0" y="0" width="16" height="16">
<path d="M16 0H0V16H16V0Z" fill="white"/>
</mask>
<g mask="url(#mask0_25_340)">
<path d="M11.9469 12.456L11.6435 11.9384C11.4707 12.0396 11.3599 12.2204 11.348 12.4203L11.9469 12.456ZM8.51108 13.4843L8.89586 13.0239C8.77813 12.9255 8.62719 12.8759 8.47404 12.8854L8.51108 13.4843ZM12.5 14.5L12.6177 15.0883C12.814 15.0491 12.9777 14.9145 13.0543 14.7296C13.1309 14.5447 13.1103 14.3337 12.9992 14.1672L12.5 14.5ZM14.4 7.50002C14.4 9.30897 13.3373 10.9454 11.6435 11.9384L12.2504 12.9736C14.2433 11.8053 15.6 9.80856 15.6 7.50002H14.4ZM8.00002 2.10002C11.6247 2.10002 14.4 4.60112 14.4 7.50002H15.6C15.6 3.7715 12.1073 0.900024 8.00002 0.900024V2.10002ZM1.60002 7.50002C1.60002 4.60112 4.37529 2.10002 8.00002 2.10002V0.900024C3.89276 0.900024 0.400024 3.7715 0.400024 7.50002H1.60002ZM8.00002 12.9C4.37529 12.9 1.60002 10.3989 1.60002 7.50002H0.400024C0.400024 11.2285 3.89276 14.1 8.00002 14.1V12.9ZM8.47404 12.8854C8.31761 12.8951 8.15953 12.9 8.00002 12.9V14.1C8.18424 14.1 8.36702 14.0943 8.54811 14.0831L8.47404 12.8854ZM12.3823 13.9117C11.1394 14.1602 9.85824 13.8283 8.89586 13.0239L8.12628 13.9446C9.36613 14.9809 11.0165 15.4086 12.6177 15.0883L12.3823 13.9117ZM11.348 12.4203C11.2979 13.2622 11.5195 14.111 12.0008 14.8328L12.9992 14.1672C12.6651 13.6659 12.5111 13.0766 12.5459 12.4916L11.348 12.4203Z" fill="black"/>
<path d="M4.5 6H11" stroke="black" stroke-width="1.2" stroke-linecap="round" stroke-linejoin="round"/>
<path d="M4.5 9H8" stroke="black" stroke-width="1.2" stroke-linecap="round" stroke-linejoin="round"/>
</g>
</g>
</g>
<defs>
<clipPath id="clip0_25_340">
<rect width="16" height="16" fill="white"/>
</clipPath>
<clipPath id="clip1_25_340">
<rect width="16" height="16" fill="white"/>
</clipPath>
</defs>
</svg>
