<svg width="20" height="20" viewBox="0 0 20 20" fill="none" xmlns="http://www.w3.org/2000/svg">
<g clip-path="url(#clip0_30_880)">
<path d="M0 0H20V20H0V0Z" stroke="#E5E7EB"/>
<path d="M0.937452 2.1875C0.937452 1.66797 1.35542 1.25 1.87495 1.25H3.12495C3.64448 1.25 4.06245 1.66797 4.06245 2.1875V6.875H4.68745C5.20698 6.875 5.62495 7.29297 5.62495 7.8125C5.62495 8.33203 5.20698 8.75 4.68745 8.75H1.56245C1.04292 8.75 0.624952 8.33203 0.624952 7.8125C0.624952 7.29297 1.04292 6.875 1.56245 6.875H2.18745V3.125H1.87495C1.35542 3.125 0.937452 2.70703 0.937452 2.1875ZM3.38667 13.3281C3.13276 13.0391 2.67183 13.0586 2.44917 13.375L2.01167 13.9805C1.71089 14.4023 1.12495 14.5 0.703077 14.1992C0.281202 13.8984 0.183546 13.3125 0.484327 12.8906L0.917921 12.2812C1.8437 10.9844 3.74214 10.8906 4.79292 12.0898C5.62495 13.043 5.60542 14.4688 4.74995 15.3984L3.39058 16.875H4.68745C5.20698 16.875 5.62495 17.293 5.62495 17.8125C5.62495 18.332 5.20698 18.75 4.68745 18.75H1.24995C0.878859 18.75 0.539015 18.5312 0.390577 18.1875C0.24214 17.8438 0.308546 17.4492 0.558546 17.1758L3.37105 14.1289C3.57808 13.9023 3.58198 13.5586 3.38277 13.3281H3.38667ZM8.74995 2.5H18.75C19.4414 2.5 20 3.05859 20 3.75C20 4.44141 19.4414 5 18.75 5H8.74995C8.05855 5 7.49995 4.44141 7.49995 3.75C7.49995 3.05859 8.05855 2.5 8.74995 2.5ZM8.74995 8.75H18.75C19.4414 8.75 20 9.30859 20 10C20 10.6914 19.4414 11.25 18.75 11.25H8.74995C8.05855 11.25 7.49995 10.6914 7.49995 10C7.49995 9.30859 8.05855 8.75 8.74995 8.75ZM8.74995 15H18.75C19.4414 15 20 15.5586 20 16.25C20 16.9414 19.4414 17.5 18.75 17.5H8.74995C8.05855 17.5 7.49995 16.9414 7.49995 16.25C7.49995 15.5586 8.05855 15 8.74995 15Z" fill="#2563EB"/>
</g>
<defs>
<clipPath id="clip0_30_880">
<rect width="20" height="20" fill="white"/>
</clipPath>
</defs>
</svg>
