<svg width="110" height="80" viewBox="0 0 110 80" fill="none" xmlns="http://www.w3.org/2000/svg">
<path d="M50 80H27.5C19.9 80 13.4167 77.3833 8.05 72.15C2.68333 66.8833 0 60.4667 0 52.9C0 46.4 1.95 40.6 5.85 35.5C9.78333 30.4 14.9167 27.15 21.25 25.75C23.35 18.0833 27.5167 11.8833 33.75 7.15C40.0167 2.38333 47.1 0 55 0C64.7667 0 73.0333 3.4 79.8 10.2C86.6 16.9667 90 25.2333 90 35C95.7667 35.6667 100.533 38.1667 104.3 42.5C108.1 46.7667 110 51.7667 110 57.5C110 63.7667 107.817 69.0833 103.45 73.45C99.0833 77.8167 93.7667 80 87.5 80H60V44.25L68 52L75 45L55 25L35 45L42 52L50 44.25V80Z" fill="black"/>
</svg>
