<svg width="1580" height="879" viewBox="0 0 1580 879" fill="none" xmlns="http://www.w3.org/2000/svg">
<path d="M1.62589 432.97C-3.25211 670.515 193.494 867.428 440.646 872.117L663.408 876.024C725.196 877.586 776.415 829.921 777.228 770.535C778.041 711.148 730.074 662.701 668.286 661.139L483.735 658.013C360.159 655.669 261.786 557.212 264.225 438.44V428.281C266.664 309.509 369.102 214.959 492.678 217.303L677.229 220.429C739.017 221.21 789.423 174.326 791.049 114.94C792.675 55.5537 743.082 6.32549 681.294 5.54409L458.532 1.63709C211.38 -3.05131 6.50389 186.048 1.62589 423.593V432.97Z" fill="#4D4D4D"/>
<path d="M878.04 798.665C927.633 882.274 1044.7 901.81 1143.08 846.33V847.112L1468.28 642.385C1569.09 579.091 1608.11 457.974 1556.89 372.02C1505.68 286.066 1382.1 267.313 1281.29 330.606C1278.85 332.169 1277.22 333.732 1275.6 334.513L973.161 525.175C970.722 526.737 969.096 527.519 966.657 529.082C964.218 530.644 962.592 532.207 960.966 532.989L956.901 535.333C863.406 599.408 828.447 715.055 878.04 798.665Z" fill="#7400A3"/>
<path d="M1.62598 432.97C-3.25203 670.516 193.494 867.428 440.646 872.117L663.408 876.024C725.196 877.587 776.415 829.921 777.228 770.535C778.041 711.148 730.074 662.702 668.286 661.139L504.06 658.013C502.434 658.013 500.808 658.013 498.369 658.013C496.743 658.013 495.117 658.013 492.678 658.013H482.922C472.353 658.013 462.597 657.232 452.028 655.669C230.079 630.664 57.7229 452.505 48.7799 236.057C18.6989 292.318 1.626 355.611 0 423.593L1.62598 432.97Z" fill="url(#paint0_radial_704_15)"/>
<path d="M454.467 654.887C345.525 638.478 263.412 547.054 265.038 437.658V427.5C265.851 405.621 269.103 384.523 275.607 364.988C273.981 350.923 273.168 337.639 273.981 322.792C278.046 142.289 490.239 0.0740418 678.042 3.98104L459.345 0.0740419C282.111 -3.05156 126.828 93.0607 51.2192 235.275C60.1622 451.723 231.705 629.101 454.467 654.887Z" fill="url(#paint1_radial_704_15)"/>
<path d="M493.491 216.522L678.042 219.648C739.83 220.429 790.236 173.545 791.862 114.159C792.675 56.3351 746.334 7.88829 686.172 4.76269C683.733 4.76269 681.294 4.76269 678.042 4.76269C490.239 0.855691 277.233 143.07 273.981 323.574C273.981 337.639 274.794 351.704 275.607 365.769C305.688 277.471 392.679 214.178 493.491 216.522Z" fill="url(#paint2_radial_704_15)"/>
<path d="M896.739 89.1536C830.886 161.824 849.585 273.564 935.763 345.453V346.234L1243.08 575.184C1338.2 645.51 1469.9 642.385 1538.2 567.37C1606.49 492.356 1584.54 374.365 1489.42 303.257C1487.79 301.694 1485.35 300.913 1483.73 299.35L1198.36 86.8094C1196.74 85.2466 1195.11 83.6837 1192.67 82.1209C1191.05 80.5581 1188.61 79.7767 1186.98 78.2139L1182.92 75.0884C1087.79 11.0136 962.592 16.4834 896.739 89.1536Z" fill="#B600A3"/>
<path d="M1133.32 853.363C1133.32 853.363 1015.44 501.733 1309.74 314.979C1299.99 319.667 1291.04 324.355 1282.1 329.825C1279.66 331.388 1278.04 332.951 1276.41 333.732L973.974 524.394C971.535 525.957 969.909 526.738 967.47 528.301C965.031 529.864 963.405 531.426 961.779 532.208L957.714 534.552C865.032 599.408 830.073 715.055 879.666 798.665C928.446 879.931 1038.2 901.81 1133.32 853.363Z" fill="url(#paint3_radial_704_15)"/>
<defs>
<radialGradient id="paint0_radial_704_15" cx="0" cy="0" r="1" gradientUnits="userSpaceOnUse" gradientTransform="translate(510.28 349.519) rotate(-178.915) scale(707.122 679.658)">
<stop stop-color="#EAA92B"/>
<stop offset="0.0318542" stop-color="#E99B30"/>
<stop offset="0.1611" stop-color="#E36644"/>
<stop offset="0.2818" stop-color="#DF3C54"/>
<stop offset="0.3905" stop-color="#DC1E5F"/>
<stop offset="0.4834" stop-color="#DB0C66"/>
<stop offset="0.5495" stop-color="#DA0568"/>
<stop offset="0.8925" stop-color="#7400A3"/>
<stop offset="1" stop-color="#760CA5"/>
</radialGradient>
<radialGradient id="paint1_radial_704_15" cx="0" cy="0" r="1" gradientUnits="userSpaceOnUse" gradientTransform="translate(353.502 534.815) rotate(-178.915) scale(381.549 366.73)">
<stop stop-color="#E7AB2B"/>
<stop offset="0.1626" stop-color="#DC7B3E"/>
<stop offset="0.3287" stop-color="#D3524F"/>
<stop offset="0.4794" stop-color="#CD345B"/>
<stop offset="0.6083" stop-color="#C82262"/>
<stop offset="0.7" stop-color="#C71B65"/>
</radialGradient>
<radialGradient id="paint2_radial_704_15" cx="0" cy="0" r="1" gradientUnits="userSpaceOnUse" gradientTransform="translate(284.761 231.366) rotate(-178.915) scale(525.051 504.658)">
<stop stop-color="#3A0046"/>
<stop offset="0.1551" stop-color="#670950"/>
<stop offset="0.3235" stop-color="#901059"/>
<stop offset="0.4764" stop-color="#AE1660"/>
<stop offset="0.607" stop-color="#C01A64"/>
<stop offset="0.7" stop-color="#C71B65"/>
</radialGradient>
<radialGradient id="paint3_radial_704_15" cx="0" cy="0" r="1" gradientUnits="userSpaceOnUse" gradientTransform="translate(1648.48 639.963) rotate(147.806) scale(1054.43 896.308)">
<stop stop-color="#EAA92B"/>
<stop offset="0.0318542" stop-color="#E99B30"/>
<stop offset="0.1611" stop-color="#E36644"/>
<stop offset="0.2818" stop-color="#DF3C54"/>
<stop offset="0.3905" stop-color="#DC1E5F"/>
<stop offset="0.4834" stop-color="#DB0C66"/>
<stop offset="0.5495" stop-color="#DA0568"/>
<stop offset="0.8925" stop-color="#7400A3"/>
<stop offset="1" stop-color="#760CA5"/>
</radialGradient>
</defs>
</svg>
